<svg version="1.1" xmlns="http://www.w3.org/2000/svg" xmlns:xlink="http://www.w3.org/1999/xlink" width="640" height="400" viewBox="0 0 640 400">
<g id="skeleton-content">
<g id="top-bar">
<path id="Rectangle-5" d="M0.000,0.000 L640.000,0.000 L640.000,40.000 L0.000,40.000 L0.000,0.000 z" fill="#BAC5CD" />
<path id="Rectangle-8" d="M614.000,24.000 C614.000,24.000 542.000,24.000 542.000,24.000 C540.895,24.000 540.000,23.105 540.000,22.000 C540.000,22.000 540.000,18.000 540.000,18.000 C540.000,16.895 540.895,16.000 542.000,16.000 C542.000,16.000 614.000,16.000 614.000,16.000 C615.105,16.000 616.000,16.895 616.000,18.000 C616.000,18.000 616.000,22.000 616.000,22.000 C616.000,23.105 615.105,24.000 614.000,24.000 zM74.000,24.000 C72.895,24.000 72.000,23.105 72.000,22.000 C72.000,22.000 72.000,18.000 72.000,18.000 C72.000,16.895 72.895,16.000 74.000,16.000 C74.000,16.000 146.000,16.000 146.000,16.000 C147.105,16.000 148.000,16.895 148.000,18.000 C148.000,18.000 148.000,22.000 148.000,22.000 C148.000,23.105 147.105,24.000 146.000,24.000 C146.000,24.000 74.000,24.000 74.000,24.000 z" fill="#FFFFFF" fill-opacity="0.478" />
</g>
<g id="side-bar">
<path id="Rectangle-5" d="M-0.000,0.000 L48.000,0.000 L48.000,400.000 L-0.000,400.000 L-0.000,0.000 z" fill="#758A9A" />
<path id="Rectangle-8" d="M32.000,216.000 C32.000,216.000 16.000,216.000 16.000,216.000 C14.895,216.000 14.000,215.105 14.000,214.000 C14.000,214.000 14.000,198.000 14.000,198.000 C14.000,196.895 14.895,196.000 16.000,196.000 C16.000,196.000 32.000,196.000 32.000,196.000 C33.105,196.000 34.000,196.895 34.000,198.000 C34.000,198.000 34.000,214.000 34.000,214.000 C34.000,215.105 33.105,216.000 32.000,216.000 zM32.000,172.000 C32.000,172.000 16.000,172.000 16.000,172.000 C14.895,172.000 14.000,171.105 14.000,170.000 C14.000,170.000 14.000,154.000 14.000,154.000 C14.000,152.895 14.895,152.000 16.000,152.000 C16.000,152.000 32.000,152.000 32.000,152.000 C33.105,152.000 34.000,152.895 34.000,154.000 C34.000,154.000 34.000,170.000 34.000,170.000 C34.000,171.105 33.105,172.000 32.000,172.000 zM32.000,128.000 C32.000,128.000 16.000,128.000 16.000,128.000 C14.895,128.000 14.000,127.105 14.000,126.000 C14.000,126.000 14.000,110.000 14.000,110.000 C14.000,108.895 14.895,108.000 16.000,108.000 C16.000,108.000 32.000,108.000 32.000,108.000 C33.105,108.000 34.000,108.895 34.000,110.000 C34.000,110.000 34.000,126.000 34.000,126.000 C34.000,127.105 33.105,128.000 32.000,128.000 zM32.000,84.000 C32.000,84.000 16.000,84.000 16.000,84.000 C14.895,84.000 14.000,83.105 14.000,82.000 C14.000,82.000 14.000,66.000 14.000,66.000 C14.000,64.895 14.895,64.000 16.000,64.000 C16.000,64.000 32.000,64.000 32.000,64.000 C33.105,64.000 34.000,64.895 34.000,66.000 C34.000,66.000 34.000,82.000 34.000,82.000 C34.000,83.105 33.105,84.000 32.000,84.000 z" fill="#E9EFF4" />
<path id="Rectangle-8" d="M14.000,8.000 C14.000,8.000 34.000,8.000 34.000,8.000 C35.105,8.000 36.000,8.895 36.000,10.000 C36.000,10.000 36.000,30.000 36.000,30.000 C36.000,31.105 35.105,32.000 34.000,32.000 C34.000,32.000 14.000,32.000 14.000,32.000 C12.895,32.000 12.000,31.105 12.000,30.000 C12.000,30.000 12.000,10.000 12.000,10.000 C12.000,8.895 12.895,8.000 14.000,8.000 z" fill="#00C2C5" />
</g>
<g id="content">
<path id="Rectangle-7" d="M178.000,400.000 C178.000,400.000 126.000,400.000 126.000,400.000 C123.791,400.000 122.000,398.209 122.000,396.000 C122.000,396.000 122.000,344.000 122.000,344.000 C122.000,341.791 123.791,340.000 126.000,340.000 C126.000,340.000 178.000,340.000 178.000,340.000 C180.209,340.000 182.000,341.791 182.000,344.000 C182.000,344.000 182.000,396.000 182.000,396.000 C182.000,398.209 180.209,400.000 178.000,400.000 zM178.000,124.000 C178.000,124.000 126.000,124.000 126.000,124.000 C123.791,124.000 122.000,122.209 122.000,120.000 C122.000,120.000 122.000,68.000 122.000,68.000 C122.000,65.791 123.791,64.000 126.000,64.000 C126.000,64.000 178.000,64.000 178.000,64.000 C180.209,64.000 182.000,65.791 182.000,68.000 C182.000,68.000 182.000,120.000 182.000,120.000 C182.000,122.209 180.209,124.000 178.000,124.000 z" fill="#D2DDE7" fill-opacity="0.478" />
<path id="Rectangle-6" d="M514.000,532.000 C514.000,532.000 210.000,532.000 210.000,532.000 C207.791,532.000 206.000,530.209 206.000,528.000 C206.000,528.000 206.000,516.000 206.000,516.000 C206.000,513.791 207.791,512.000 210.000,512.000 C210.000,512.000 514.000,512.000 514.000,512.000 C516.209,512.000 518.000,513.791 518.000,516.000 C518.000,516.000 518.000,528.000 518.000,528.000 C518.000,530.209 516.209,532.000 514.000,532.000 zM514.000,496.000 C514.000,496.000 210.000,496.000 210.000,496.000 C207.791,496.000 206.000,494.209 206.000,492.000 C206.000,492.000 206.000,480.000 206.000,480.000 C206.000,477.791 207.791,476.000 210.000,476.000 C210.000,476.000 514.000,476.000 514.000,476.000 C516.209,476.000 518.000,477.791 518.000,480.000 C518.000,480.000 518.000,492.000 518.000,492.000 C518.000,494.209 516.209,496.000 514.000,496.000 zM514.000,460.000 C514.000,460.000 210.000,460.000 210.000,460.000 C207.791,460.000 206.000,458.209 206.000,456.000 C206.000,456.000 206.000,344.000 206.000,344.000 C206.000,341.791 207.791,340.000 210.000,340.000 C210.000,340.000 514.000,340.000 514.000,340.000 C516.209,340.000 518.000,341.791 518.000,344.000 C518.000,344.000 518.000,456.000 518.000,456.000 C518.000,458.209 516.209,460.000 514.000,460.000 zM514.000,256.000 C514.000,256.000 210.000,256.000 210.000,256.000 C207.791,256.000 206.000,254.209 206.000,252.000 C206.000,252.000 206.000,240.000 206.000,240.000 C206.000,237.791 207.791,236.000 210.000,236.000 C210.000,236.000 514.000,236.000 514.000,236.000 C516.209,236.000 518.000,237.791 518.000,240.000 C518.000,240.000 518.000,252.000 518.000,252.000 C518.000,254.209 516.209,256.000 514.000,256.000 zM514.000,220.000 C514.000,220.000 210.000,220.000 210.000,220.000 C207.791,220.000 206.000,218.209 206.000,216.000 C206.000,216.000 206.000,204.000 206.000,204.000 C206.000,201.791 207.791,200.000 210.000,200.000 C210.000,200.000 514.000,200.000 514.000,200.000 C516.209,200.000 518.000,201.791 518.000,204.000 C518.000,204.000 518.000,216.000 518.000,216.000 C518.000,218.209 516.209,220.000 514.000,220.000 zM514.000,184.000 C514.000,184.000 210.000,184.000 210.000,184.000 C207.791,184.000 206.000,182.209 206.000,180.000 C206.000,180.000 206.000,68.000 206.000,68.000 C206.000,65.791 207.791,64.000 210.000,64.000 C210.000,64.000 514.000,64.000 514.000,64.000 C516.209,64.000 518.000,65.791 518.000,68.000 C518.000,68.000 518.000,180.000 518.000,180.000 C518.000,182.209 516.209,184.000 514.000,184.000 zM210.000,272.000 C210.000,272.000 362.000,272.000 362.000,272.000 C364.209,272.000 366.000,273.791 366.000,276.000 C366.000,276.000 366.000,288.000 366.000,288.000 C366.000,290.209 364.209,292.000 362.000,292.000 C362.000,292.000 210.000,292.000 210.000,292.000 C207.791,292.000 206.000,290.209 206.000,288.000 C206.000,288.000 206.000,276.000 206.000,276.000 C206.000,273.791 207.791,272.000 210.000,272.000 zM210.000,548.000 C210.000,548.000 362.000,548.000 362.000,548.000 C364.209,548.000 366.000,549.791 366.000,552.000 C366.000,552.000 366.000,564.000 366.000,564.000 C366.000,566.209 364.209,568.000 362.000,568.000 C362.000,568.000 210.000,568.000 210.000,568.000 C207.791,568.000 206.000,566.209 206.000,564.000 C206.000,564.000 206.000,552.000 206.000,552.000 C206.000,549.791 207.791,548.000 210.000,548.000 z" fill="#D2DDE7" fill-opacity="0.639" />
</g>
</g>
</svg>
