<svg version="1.1" xmlns="http://www.w3.org/2000/svg" xmlns:xlink="http://www.w3.org/1999/xlink" width="640" height="400" viewBox="0 0 640 400">
<g id="skeleton-content">
<g id="top-bar">
<path id="Rectangle-5" d="M0.000,-0.000 L640.000,-0.000 L640.000,48.000 L0.000,48.000 L0.000,-0.000 z" fill="#758A9A" />
<path id="Rectangle-8" d="M39.000,11.000 C39.000,11.000 59.000,11.000 59.000,11.000 C60.105,11.000 61.000,11.895 61.000,13.000 C61.000,13.000 61.000,33.000 61.000,33.000 C61.000,34.105 60.105,35.000 59.000,35.000 C59.000,35.000 39.000,35.000 39.000,35.000 C37.895,35.000 37.000,34.105 37.000,33.000 C37.000,33.000 37.000,13.000 37.000,13.000 C37.000,11.895 37.895,11.000 39.000,11.000 z" fill="#00C2C5" />
<path id="Rectangle-8" d="M602.000,29.000 C602.000,29.000 542.000,29.000 542.000,29.000 C540.895,29.000 540.000,28.105 540.000,27.000 C540.000,27.000 540.000,19.000 540.000,19.000 C540.000,17.895 540.895,17.000 542.000,17.000 C542.000,17.000 602.000,17.000 602.000,17.000 C603.105,17.000 604.000,17.895 604.000,19.000 C604.000,19.000 604.000,27.000 604.000,27.000 C604.000,28.105 603.105,29.000 602.000,29.000 zM454.000,29.000 C452.895,29.000 452.000,28.105 452.000,27.000 C452.000,27.000 452.000,19.000 452.000,19.000 C452.000,17.895 452.895,17.000 454.000,17.000 C454.000,17.000 514.000,17.000 514.000,17.000 C515.105,17.000 516.000,17.895 516.000,19.000 C516.000,19.000 516.000,27.000 516.000,27.000 C516.000,28.105 515.105,29.000 514.000,29.000 C514.000,29.000 454.000,29.000 454.000,29.000 zM366.000,29.000 C364.895,29.000 364.000,28.105 364.000,27.000 C364.000,27.000 364.000,19.000 364.000,19.000 C364.000,17.895 364.895,17.000 366.000,17.000 C366.000,17.000 426.000,17.000 426.000,17.000 C427.105,17.000 428.000,17.895 428.000,19.000 C428.000,19.000 428.000,27.000 428.000,27.000 C428.000,28.105 427.105,29.000 426.000,29.000 C426.000,29.000 366.000,29.000 366.000,29.000 zM278.000,29.000 C276.895,29.000 276.000,28.105 276.000,27.000 C276.000,27.000 276.000,19.000 276.000,19.000 C276.000,17.895 276.895,17.000 278.000,17.000 C278.000,17.000 338.000,17.000 338.000,17.000 C339.105,17.000 340.000,17.895 340.000,19.000 C340.000,19.000 340.000,27.000 340.000,27.000 C340.000,28.105 339.105,29.000 338.000,29.000 C338.000,29.000 278.000,29.000 278.000,29.000 z" fill="#FFFFFF" fill-opacity="0.478" />
</g>
<g id="content">
<path id="Rectangle-6" d="M432.000,540.000 C432.000,540.000 40.000,540.000 40.000,540.000 C37.791,540.000 36.000,538.209 36.000,536.000 C36.000,536.000 36.000,524.000 36.000,524.000 C36.000,521.791 37.791,520.000 40.000,520.000 C40.000,520.000 432.000,520.000 432.000,520.000 C434.209,520.000 436.000,521.791 436.000,524.000 C436.000,524.000 436.000,536.000 436.000,536.000 C436.000,538.209 434.209,540.000 432.000,540.000 zM432.000,504.000 C432.000,504.000 40.000,504.000 40.000,504.000 C37.791,504.000 36.000,502.209 36.000,500.000 C36.000,500.000 36.000,488.000 36.000,488.000 C36.000,485.791 37.791,484.000 40.000,484.000 C40.000,484.000 432.000,484.000 432.000,484.000 C434.209,484.000 436.000,485.791 436.000,488.000 C436.000,488.000 436.000,500.000 436.000,500.000 C436.000,502.209 434.209,504.000 432.000,504.000 zM432.000,468.000 C432.000,468.000 40.000,468.000 40.000,468.000 C37.791,468.000 36.000,466.209 36.000,464.000 C36.000,464.000 36.000,352.000 36.000,352.000 C36.000,349.791 37.791,348.000 40.000,348.000 C40.000,348.000 432.000,348.000 432.000,348.000 C434.209,348.000 436.000,349.791 436.000,352.000 C436.000,352.000 436.000,464.000 436.000,464.000 C436.000,466.209 434.209,468.000 432.000,468.000 zM432.000,264.000 C432.000,264.000 40.000,264.000 40.000,264.000 C37.791,264.000 36.000,262.209 36.000,260.000 C36.000,260.000 36.000,248.000 36.000,248.000 C36.000,245.791 37.791,244.000 40.000,244.000 C40.000,244.000 432.000,244.000 432.000,244.000 C434.209,244.000 436.000,245.791 436.000,248.000 C436.000,248.000 436.000,260.000 436.000,260.000 C436.000,262.209 434.209,264.000 432.000,264.000 zM432.000,228.000 C432.000,228.000 40.000,228.000 40.000,228.000 C37.791,228.000 36.000,226.209 36.000,224.000 C36.000,224.000 36.000,212.000 36.000,212.000 C36.000,209.791 37.791,208.000 40.000,208.000 C40.000,208.000 432.000,208.000 432.000,208.000 C434.209,208.000 436.000,209.791 436.000,212.000 C436.000,212.000 436.000,224.000 436.000,224.000 C436.000,226.209 434.209,228.000 432.000,228.000 zM432.000,192.000 C432.000,192.000 40.000,192.000 40.000,192.000 C37.791,192.000 36.000,190.209 36.000,188.000 C36.000,188.000 36.000,76.000 36.000,76.000 C36.000,73.791 37.791,72.000 40.000,72.000 C40.000,72.000 432.000,72.000 432.000,72.000 C434.209,72.000 436.000,73.791 436.000,76.000 C436.000,76.000 436.000,188.000 436.000,188.000 C436.000,190.209 434.209,192.000 432.000,192.000 zM40.000,280.000 C40.000,280.000 192.000,280.000 192.000,280.000 C194.209,280.000 196.000,281.791 196.000,284.000 C196.000,284.000 196.000,296.000 196.000,296.000 C196.000,298.209 194.209,300.000 192.000,300.000 C192.000,300.000 40.000,300.000 40.000,300.000 C37.791,300.000 36.000,298.209 36.000,296.000 C36.000,296.000 36.000,284.000 36.000,284.000 C36.000,281.791 37.791,280.000 40.000,280.000 zM40.000,556.000 C40.000,556.000 192.000,556.000 192.000,556.000 C194.209,556.000 196.000,557.791 196.000,560.000 C196.000,560.000 196.000,572.000 196.000,572.000 C196.000,574.209 194.209,576.000 192.000,576.000 C192.000,576.000 40.000,576.000 40.000,576.000 C37.791,576.000 36.000,574.209 36.000,572.000 C36.000,572.000 36.000,560.000 36.000,560.000 C36.000,557.791 37.791,556.000 40.000,556.000 z" fill="#D2DDE7" fill-opacity="0.639" />
<path id="Rectangle-7" d="M600.000,468.000 C600.000,468.000 476.000,468.000 476.000,468.000 C473.791,468.000 472.000,466.209 472.000,464.000 C472.000,464.000 472.000,352.000 472.000,352.000 C472.000,349.791 473.791,348.000 476.000,348.000 C476.000,348.000 600.000,348.000 600.000,348.000 C602.209,348.000 604.000,349.791 604.000,352.000 C604.000,352.000 604.000,464.000 604.000,464.000 C604.000,466.209 602.209,468.000 600.000,468.000 zM600.000,192.000 C600.000,192.000 476.000,192.000 476.000,192.000 C473.791,192.000 472.000,190.209 472.000,188.000 C472.000,188.000 472.000,76.000 472.000,76.000 C472.000,73.791 473.791,72.000 476.000,72.000 C476.000,72.000 600.000,72.000 600.000,72.000 C602.209,72.000 604.000,73.791 604.000,76.000 C604.000,76.000 604.000,188.000 604.000,188.000 C604.000,190.209 602.209,192.000 600.000,192.000 z" fill="#D2DDE7" fill-opacity="0.478" />
</g>
</g>
</svg>
