<svg version="1.1" xmlns="http://www.w3.org/2000/svg" xmlns:xlink="http://www.w3.org/1999/xlink" width="640" height="400" viewBox="0 0 640 400">
<g id="skeleton-sign-in">
<path id="Rectangle-3" d="M-0.000,0.000 L320.000,0.000 L320.000,400.000 L-0.000,400.000 L-0.000,0.000 z" fill="#758A9A" fill-opacity="0.039" />
<path id="Rectangle-4" d="M320.000,0.000 L321.000,0.000 L321.000,400.000 L320.000,400.000 L320.000,0.000 z" fill="#D2DDE7" fill-opacity="0.639" />
<path id="Rectangle-1" d="M68.000,80.000 C68.000,80.000 252.000,80.000 252.000,80.000 C256.418,80.000 260.000,83.582 260.000,88.000 C260.000,88.000 260.000,312.000 260.000,312.000 C260.000,316.418 256.418,320.000 252.000,320.000 C252.000,320.000 68.000,320.000 68.000,320.000 C63.582,320.000 60.000,316.418 60.000,312.000 C60.000,312.000 60.000,88.000 60.000,88.000 C60.000,83.582 63.582,80.000 68.000,80.000 z" fill="#D2DDE7" fill-opacity="0.478" />
<path id="Rectangle-2" d="M238.000,190.000 C238.000,190.000 82.000,190.000 82.000,190.000 C80.895,190.000 80.000,189.105 80.000,188.000 C80.000,188.000 80.000,168.000 80.000,168.000 C80.000,166.895 80.895,166.000 82.000,166.000 C82.000,166.000 238.000,166.000 238.000,166.000 C239.105,166.000 240.000,166.895 240.000,168.000 C240.000,168.000 240.000,188.000 240.000,188.000 C240.000,189.105 239.105,190.000 238.000,190.000 zM238.000,148.000 C238.000,148.000 82.000,148.000 82.000,148.000 C80.895,148.000 80.000,147.105 80.000,146.000 C80.000,146.000 80.000,126.000 80.000,126.000 C80.000,124.895 80.895,124.000 82.000,124.000 C82.000,124.000 238.000,124.000 238.000,124.000 C239.105,124.000 240.000,124.895 240.000,126.000 C240.000,126.000 240.000,146.000 240.000,146.000 C240.000,147.105 239.105,148.000 238.000,148.000 z" fill="#FFFFFF" />
<path id="Rectangle-2" d="M82.000,208.000 C82.000,208.000 90.000,208.000 90.000,208.000 C91.105,208.000 92.000,208.895 92.000,210.000 C92.000,210.000 92.000,218.000 92.000,218.000 C92.000,219.105 91.105,220.000 90.000,220.000 C90.000,220.000 82.000,220.000 82.000,220.000 C80.895,220.000 80.000,219.105 80.000,218.000 C80.000,218.000 80.000,210.000 80.000,210.000 C80.000,208.895 80.895,208.000 82.000,208.000 z" fill="#FFFFFF" />
<path id="Rectangle-2" d="M106.000,211.000 C106.000,211.000 182.000,211.000 182.000,211.000 C183.105,211.000 184.000,211.895 184.000,213.000 C184.000,213.000 184.000,215.000 184.000,215.000 C184.000,216.105 183.105,217.000 182.000,217.000 C182.000,217.000 106.000,217.000 106.000,217.000 C104.895,217.000 104.000,216.105 104.000,215.000 C104.000,215.000 104.000,213.000 104.000,213.000 C104.000,211.895 104.895,211.000 106.000,211.000 z" fill="#758A9A" fill-opacity="0.239" />
<path id="Rectangle-2" d="M82.000,242.000 C82.000,242.000 238.000,242.000 238.000,242.000 C239.105,242.000 240.000,242.895 240.000,244.000 C240.000,244.000 240.000,264.000 240.000,264.000 C240.000,265.105 239.105,266.000 238.000,266.000 C238.000,266.000 82.000,266.000 82.000,266.000 C80.895,266.000 80.000,265.105 80.000,264.000 C80.000,264.000 80.000,244.000 80.000,244.000 C80.000,242.895 80.895,242.000 82.000,242.000 z" fill="#00C2C5" />
</g>
</svg>
