<svg version="1.1" xmlns="http://www.w3.org/2000/svg" xmlns:xlink="http://www.w3.org/1999/xlink" width="640" height="400" viewBox="0 0 640 400">
<g id="skeleton-content">
<g id="left-sidebar">
<path id="Rectangle-5" d="M0.000,0.000 L152.000,0.000 L152.000,400.000 L0.000,400.000 L0.000,0.000 z" fill="#758A9A" />
<path id="Rectangle-12" d="M0.000,325.000 L0.000,297.000 L152.000,297.000 L152.000,325.000 L0.000,325.000 zM20.000,187.000 C20.000,184.791 21.791,183.000 24.000,183.000 C24.000,183.000 122.000,183.000 122.000,183.000 C124.209,183.000 126.000,184.791 126.000,187.000 C126.000,187.000 126.000,191.000 126.000,191.000 C126.000,193.209 124.209,195.000 122.000,195.000 C122.000,195.000 24.000,195.000 24.000,195.000 C21.791,195.000 20.000,193.209 20.000,191.000 C20.000,191.000 20.000,187.000 20.000,187.000 zM24.000,247.000 C24.000,247.000 110.000,247.000 110.000,247.000 C112.209,247.000 114.000,248.791 114.000,251.000 C114.000,251.000 114.000,255.000 114.000,255.000 C114.000,257.209 112.209,259.000 110.000,259.000 C110.000,259.000 24.000,259.000 24.000,259.000 C21.791,259.000 20.000,257.209 20.000,255.000 C20.000,255.000 20.000,251.000 20.000,251.000 C20.000,248.791 21.791,247.000 24.000,247.000 zM20.000,219.000 C20.000,216.791 21.791,215.000 24.000,215.000 C24.000,215.000 100.000,215.000 100.000,215.000 C102.209,215.000 104.000,216.791 104.000,219.000 C104.000,219.000 104.000,223.000 104.000,223.000 C104.000,225.209 102.209,227.000 100.000,227.000 C100.000,227.000 24.000,227.000 24.000,227.000 C21.791,227.000 20.000,225.209 20.000,223.000 C20.000,223.000 20.000,219.000 20.000,219.000 zM0.000,139.000 L152.000,139.000 L152.000,167.000 L0.000,167.000 L0.000,139.000 zM24.000,342.000 C24.000,342.000 120.000,342.000 120.000,342.000 C122.209,342.000 124.000,343.791 124.000,346.000 C124.000,346.000 124.000,350.000 124.000,350.000 C124.000,352.209 122.209,354.000 120.000,354.000 C120.000,354.000 24.000,354.000 24.000,354.000 C21.791,354.000 20.000,352.209 20.000,350.000 C20.000,350.000 20.000,346.000 20.000,346.000 C20.000,343.791 21.791,342.000 24.000,342.000 zM24.000,374.000 C24.000,374.000 90.000,374.000 90.000,374.000 C92.209,374.000 94.000,375.791 94.000,378.000 C94.000,378.000 94.000,382.000 94.000,382.000 C94.000,384.209 92.209,386.000 90.000,386.000 C90.000,386.000 24.000,386.000 24.000,386.000 C21.791,386.000 20.000,384.209 20.000,382.000 C20.000,382.000 20.000,378.000 20.000,378.000 C20.000,375.791 21.791,374.000 24.000,374.000 zM24.000,406.000 C24.000,406.000 118.000,406.000 118.000,406.000 C120.209,406.000 122.000,407.791 122.000,410.000 C122.000,410.000 122.000,414.000 122.000,414.000 C122.000,416.209 120.209,418.000 118.000,418.000 C118.000,418.000 24.000,418.000 24.000,418.000 C21.791,418.000 20.000,416.209 20.000,414.000 C20.000,414.000 20.000,410.000 20.000,410.000 C20.000,407.791 21.791,406.000 24.000,406.000 z" fill="#D2DDE7" fill-opacity="0.478" />
<path id="Rectangle-9" d="M24.000,20.000 C24.000,20.000 48.000,20.000 48.000,20.000 C50.209,20.000 52.000,21.791 52.000,24.000 C52.000,24.000 52.000,48.000 52.000,48.000 C52.000,50.209 50.209,52.000 48.000,52.000 C48.000,52.000 24.000,52.000 24.000,52.000 C21.791,52.000 20.000,50.209 20.000,48.000 C20.000,48.000 20.000,24.000 20.000,24.000 C20.000,21.791 21.791,20.000 24.000,20.000 z" fill="#00C2C5" />
<path id="Rectangle-10" d="M130.000,38.000 C130.000,38.000 66.000,38.000 66.000,38.000 C64.895,38.000 64.000,37.105 64.000,36.000 C64.000,36.000 64.000,24.000 64.000,24.000 C64.000,22.895 64.895,22.000 66.000,22.000 C66.000,22.000 130.000,22.000 130.000,22.000 C131.105,22.000 132.000,22.895 132.000,24.000 C132.000,24.000 132.000,36.000 132.000,36.000 C132.000,37.105 131.105,38.000 130.000,38.000 zM66.000,44.000 C66.000,44.000 110.000,44.000 110.000,44.000 C111.105,44.000 112.000,44.895 112.000,46.000 C112.000,46.000 112.000,48.000 112.000,48.000 C112.000,49.105 111.105,50.000 110.000,50.000 C110.000,50.000 66.000,50.000 66.000,50.000 C64.895,50.000 64.000,49.105 64.000,48.000 C64.000,48.000 64.000,46.000 64.000,46.000 C64.000,44.895 64.895,44.000 66.000,44.000 z" fill="#D2DDE7" />
</g>
<g id="right-sidebar">
<path id="Rectangle-5" d="M488.000,0.000 L640.000,0.000 L640.000,400.000 L488.000,400.000 L488.000,0.000 z" fill="#D2DDE7" />
<path id="Rectangle-12" d="M488.000,363.000 L488.000,335.000 L640.000,335.000 L640.000,363.000 L488.000,363.000 zM508.000,227.000 C508.000,224.791 509.791,223.000 512.000,223.000 C512.000,223.000 608.000,223.000 608.000,223.000 C610.209,223.000 612.000,224.791 612.000,227.000 C612.000,227.000 612.000,231.000 612.000,231.000 C612.000,233.209 610.209,235.000 608.000,235.000 C608.000,235.000 512.000,235.000 512.000,235.000 C509.791,235.000 508.000,233.209 508.000,231.000 C508.000,231.000 508.000,227.000 508.000,227.000 zM512.000,287.000 C512.000,287.000 606.000,287.000 606.000,287.000 C608.209,287.000 610.000,288.791 610.000,291.000 C610.000,291.000 610.000,295.000 610.000,295.000 C610.000,297.209 608.209,299.000 606.000,299.000 C606.000,299.000 512.000,299.000 512.000,299.000 C509.791,299.000 508.000,297.209 508.000,295.000 C508.000,295.000 508.000,291.000 508.000,291.000 C508.000,288.791 509.791,287.000 512.000,287.000 zM508.000,259.000 C508.000,256.791 509.791,255.000 512.000,255.000 C512.000,255.000 578.000,255.000 578.000,255.000 C580.209,255.000 582.000,256.791 582.000,259.000 C582.000,259.000 582.000,263.000 582.000,263.000 C582.000,265.209 580.209,267.000 578.000,267.000 C578.000,267.000 512.000,267.000 512.000,267.000 C509.791,267.000 508.000,265.209 508.000,263.000 C508.000,263.000 508.000,259.000 508.000,259.000 zM488.000,178.000 L640.000,178.000 L640.000,206.000 L488.000,206.000 L488.000,178.000 zM508.000,68.000 C508.000,65.791 509.791,64.000 512.000,64.000 C512.000,64.000 610.000,64.000 610.000,64.000 C612.209,64.000 614.000,65.791 614.000,68.000 C614.000,68.000 614.000,72.000 614.000,72.000 C614.000,74.209 612.209,76.000 610.000,76.000 C610.000,76.000 512.000,76.000 512.000,76.000 C509.791,76.000 508.000,74.209 508.000,72.000 C508.000,72.000 508.000,68.000 508.000,68.000 zM512.000,128.000 C512.000,128.000 598.000,128.000 598.000,128.000 C600.209,128.000 602.000,129.791 602.000,132.000 C602.000,132.000 602.000,136.000 602.000,136.000 C602.000,138.209 600.209,140.000 598.000,140.000 C598.000,140.000 512.000,140.000 512.000,140.000 C509.791,140.000 508.000,138.209 508.000,136.000 C508.000,136.000 508.000,132.000 508.000,132.000 C508.000,129.791 509.791,128.000 512.000,128.000 zM508.000,100.000 C508.000,97.791 509.791,96.000 512.000,96.000 C512.000,96.000 588.000,96.000 588.000,96.000 C590.209,96.000 592.000,97.791 592.000,100.000 C592.000,100.000 592.000,104.000 592.000,104.000 C592.000,106.209 590.209,108.000 588.000,108.000 C588.000,108.000 512.000,108.000 512.000,108.000 C509.791,108.000 508.000,106.209 508.000,104.000 C508.000,104.000 508.000,100.000 508.000,100.000 zM488.000,20.000 L640.000,20.000 L640.000,48.000 L488.000,48.000 L488.000,20.000 zM512.000,379.000 C512.000,379.000 610.000,379.000 610.000,379.000 C612.209,379.000 614.000,380.791 614.000,383.000 C614.000,383.000 614.000,387.000 614.000,387.000 C614.000,389.209 612.209,391.000 610.000,391.000 C610.000,391.000 512.000,391.000 512.000,391.000 C509.791,391.000 508.000,389.209 508.000,387.000 C508.000,387.000 508.000,383.000 508.000,383.000 C508.000,380.791 509.791,379.000 512.000,379.000 zM512.000,411.000 C512.000,411.000 588.000,411.000 588.000,411.000 C590.209,411.000 592.000,412.791 592.000,415.000 C592.000,415.000 592.000,419.000 592.000,419.000 C592.000,421.209 590.209,423.000 588.000,423.000 C588.000,423.000 512.000,423.000 512.000,423.000 C509.791,423.000 508.000,421.209 508.000,419.000 C508.000,419.000 508.000,415.000 508.000,415.000 C508.000,412.791 509.791,411.000 512.000,411.000 zM512.000,443.000 C512.000,443.000 598.000,443.000 598.000,443.000 C600.209,443.000 602.000,444.791 602.000,447.000 C602.000,447.000 602.000,451.000 602.000,451.000 C602.000,453.209 600.209,455.000 598.000,455.000 C598.000,455.000 512.000,455.000 512.000,455.000 C509.791,455.000 508.000,453.209 508.000,451.000 C508.000,451.000 508.000,447.000 508.000,447.000 C508.000,444.791 509.791,443.000 512.000,443.000 z" fill="#A1B2BF" fill-opacity="0.478" />
</g>
<g id="content">
<path id="Rectangle-6" d="M452.000,488.000 C452.000,488.000 188.000,488.000 188.000,488.000 C185.791,488.000 184.000,486.209 184.000,484.000 C184.000,484.000 184.000,472.000 184.000,472.000 C184.000,469.791 185.791,468.000 188.000,468.000 C188.000,468.000 452.000,468.000 452.000,468.000 C454.209,468.000 456.000,469.791 456.000,472.000 C456.000,472.000 456.000,484.000 456.000,484.000 C456.000,486.209 454.209,488.000 452.000,488.000 zM452.000,452.000 C452.000,452.000 188.000,452.000 188.000,452.000 C185.791,452.000 184.000,450.209 184.000,448.000 C184.000,448.000 184.000,436.000 184.000,436.000 C184.000,433.791 185.791,432.000 188.000,432.000 C188.000,432.000 452.000,432.000 452.000,432.000 C454.209,432.000 456.000,433.791 456.000,436.000 C456.000,436.000 456.000,448.000 456.000,448.000 C456.000,450.209 454.209,452.000 452.000,452.000 zM452.000,416.000 C452.000,416.000 188.000,416.000 188.000,416.000 C185.791,416.000 184.000,414.209 184.000,412.000 C184.000,412.000 184.000,300.000 184.000,300.000 C184.000,297.791 185.791,296.000 188.000,296.000 C188.000,296.000 452.000,296.000 452.000,296.000 C454.209,296.000 456.000,297.791 456.000,300.000 C456.000,300.000 456.000,412.000 456.000,412.000 C456.000,414.209 454.209,416.000 452.000,416.000 zM452.000,212.000 C452.000,212.000 188.000,212.000 188.000,212.000 C185.791,212.000 184.000,210.209 184.000,208.000 C184.000,208.000 184.000,196.000 184.000,196.000 C184.000,193.791 185.791,192.000 188.000,192.000 C188.000,192.000 452.000,192.000 452.000,192.000 C454.209,192.000 456.000,193.791 456.000,196.000 C456.000,196.000 456.000,208.000 456.000,208.000 C456.000,210.209 454.209,212.000 452.000,212.000 zM452.000,176.000 C452.000,176.000 188.000,176.000 188.000,176.000 C185.791,176.000 184.000,174.209 184.000,172.000 C184.000,172.000 184.000,160.000 184.000,160.000 C184.000,157.791 185.791,156.000 188.000,156.000 C188.000,156.000 452.000,156.000 452.000,156.000 C454.209,156.000 456.000,157.791 456.000,160.000 C456.000,160.000 456.000,172.000 456.000,172.000 C456.000,174.209 454.209,176.000 452.000,176.000 zM452.000,140.000 C452.000,140.000 188.000,140.000 188.000,140.000 C185.791,140.000 184.000,138.209 184.000,136.000 C184.000,136.000 184.000,24.000 184.000,24.000 C184.000,21.791 185.791,20.000 188.000,20.000 C188.000,20.000 452.000,20.000 452.000,20.000 C454.209,20.000 456.000,21.791 456.000,24.000 C456.000,24.000 456.000,136.000 456.000,136.000 C456.000,138.209 454.209,140.000 452.000,140.000 zM188.000,228.000 C188.000,228.000 340.000,228.000 340.000,228.000 C342.209,228.000 344.000,229.791 344.000,232.000 C344.000,232.000 344.000,244.000 344.000,244.000 C344.000,246.209 342.209,248.000 340.000,248.000 C340.000,248.000 188.000,248.000 188.000,248.000 C185.791,248.000 184.000,246.209 184.000,244.000 C184.000,244.000 184.000,232.000 184.000,232.000 C184.000,229.791 185.791,228.000 188.000,228.000 zM188.000,504.000 C188.000,504.000 340.000,504.000 340.000,504.000 C342.209,504.000 344.000,505.791 344.000,508.000 C344.000,508.000 344.000,520.000 344.000,520.000 C344.000,522.209 342.209,524.000 340.000,524.000 C340.000,524.000 188.000,524.000 188.000,524.000 C185.791,524.000 184.000,522.209 184.000,520.000 C184.000,520.000 184.000,508.000 184.000,508.000 C184.000,505.791 185.791,504.000 188.000,504.000 z" fill="#D2DDE7" fill-opacity="0.639" />
</g>
</g>
</svg>
