<svg version="1.1" xmlns="http://www.w3.org/2000/svg" xmlns:xlink="http://www.w3.org/1999/xlink" width="640" height="400" viewBox="0 0 640 400">
<g id="skeleton-sign-in">
<path id="Rectangle-1" d="M208.000,60.000 C208.000,60.000 432.000,60.000 432.000,60.000 C436.418,60.000 440.000,63.582 440.000,68.000 C440.000,68.000 440.000,332.000 440.000,332.000 C440.000,336.418 436.418,340.000 432.000,340.000 C432.000,340.000 208.000,340.000 208.000,340.000 C203.582,340.000 200.000,336.418 200.000,332.000 C200.000,332.000 200.000,68.000 200.000,68.000 C200.000,63.582 203.582,60.000 208.000,60.000 z" fill="#D2DDE7" fill-opacity="0.478" />
<path id="Rectangle-2" d="M418.000,192.000 C418.000,192.000 222.000,192.000 222.000,192.000 C220.895,192.000 220.000,191.105 220.000,190.000 C220.000,190.000 220.000,162.000 220.000,162.000 C220.000,160.895 220.895,160.000 222.000,160.000 C222.000,160.000 418.000,160.000 418.000,160.000 C419.105,160.000 420.000,160.895 420.000,162.000 C420.000,162.000 420.000,190.000 420.000,190.000 C420.000,191.105 419.105,192.000 418.000,192.000 zM418.000,140.000 C418.000,140.000 222.000,140.000 222.000,140.000 C220.895,140.000 220.000,139.105 220.000,138.000 C220.000,138.000 220.000,110.000 220.000,110.000 C220.000,108.895 220.895,108.000 222.000,108.000 C222.000,108.000 418.000,108.000 418.000,108.000 C419.105,108.000 420.000,108.895 420.000,110.000 C420.000,110.000 420.000,138.000 420.000,138.000 C420.000,139.105 419.105,140.000 418.000,140.000 z" fill="#FFFFFF" />
<path id="Rectangle-2" d="M222.000,212.000 C222.000,212.000 234.000,212.000 234.000,212.000 C235.105,212.000 236.000,212.895 236.000,214.000 C236.000,214.000 236.000,226.000 236.000,226.000 C236.000,227.105 235.105,228.000 234.000,228.000 C234.000,228.000 222.000,228.000 222.000,228.000 C220.895,228.000 220.000,227.105 220.000,226.000 C220.000,226.000 220.000,214.000 220.000,214.000 C220.000,212.895 220.895,212.000 222.000,212.000 z" fill="#FFFFFF" />
<path id="Rectangle-2" d="M250.000,217.000 C250.000,217.000 326.000,217.000 326.000,217.000 C327.105,217.000 328.000,217.895 328.000,219.000 C328.000,219.000 328.000,223.000 328.000,223.000 C328.000,224.105 327.105,225.000 326.000,225.000 C326.000,225.000 250.000,225.000 250.000,225.000 C248.895,225.000 248.000,224.105 248.000,223.000 C248.000,223.000 248.000,219.000 248.000,219.000 C248.000,217.895 248.895,217.000 250.000,217.000 z" fill="#758A9A" fill-opacity="0.239" />
<path id="Rectangle-2" d="M222.000,256.000 C222.000,256.000 418.000,256.000 418.000,256.000 C419.105,256.000 420.000,256.895 420.000,258.000 C420.000,258.000 420.000,286.000 420.000,286.000 C420.000,287.105 419.105,288.000 418.000,288.000 C418.000,288.000 222.000,288.000 222.000,288.000 C220.895,288.000 220.000,287.105 220.000,286.000 C220.000,286.000 220.000,258.000 220.000,258.000 C220.000,256.895 220.895,256.000 222.000,256.000 z" fill="#00C2C5" />
</g>
</svg>
