<svg xmlns="http://www.w3.org/2000/svg" xmlns:xlink="http://www.w3.org/1999/xlink" preserveAspectRatio="xMidYMid" width="55" height="55" viewBox="0 0 55 55">
  <defs>
    <style>

      .cls-2 {
        fill: #feb033;
      }
    </style>
  </defs>
  <path d="M53.963,31.051 C53.943,31.603 53.480,32.034 52.928,32.015 C52.928,32.015 48.266,33.006 48.266,33.006 C47.642,35.242 46.666,37.322 45.419,39.204 C45.419,39.204 47.734,43.394 47.734,43.394 C48.110,43.798 48.088,44.431 47.684,44.807 C47.684,44.807 43.293,48.896 43.293,48.896 C42.889,49.273 42.256,49.250 41.880,48.846 C41.880,48.846 37.862,46.237 37.862,46.237 C35.897,47.344 33.755,48.168 31.483,48.630 C31.483,48.630 30.161,53.219 30.161,53.219 C30.141,53.771 29.678,54.203 29.126,54.183 C29.126,54.183 23.130,53.970 23.130,53.970 C22.578,53.951 22.146,53.487 22.166,52.935 C22.166,52.935 21.173,48.264 21.173,48.264 C18.939,47.641 16.861,46.667 14.980,45.424 C14.980,45.424 10.787,47.741 10.787,47.741 C10.383,48.118 9.750,48.095 9.373,47.691 C9.373,47.691 5.284,43.300 5.284,43.300 C4.908,42.896 4.930,42.263 5.334,41.887 C5.334,41.887 7.941,37.873 7.941,37.873 C6.831,35.907 6.005,33.762 5.541,31.487 C5.541,31.487 0.961,30.168 0.961,30.168 C0.409,30.148 -0.023,29.685 -0.003,29.133 C-0.003,29.133 0.210,23.137 0.210,23.137 C0.230,22.585 0.693,22.153 1.245,22.173 C1.245,22.173 5.908,21.182 5.908,21.182 C6.531,18.946 7.508,16.865 8.755,14.983 C8.755,14.983 6.439,10.794 6.439,10.794 C6.063,10.390 6.085,9.757 6.489,9.381 C6.489,9.381 10.880,5.291 10.880,5.291 C11.284,4.915 11.917,4.937 12.293,5.341 C12.293,5.341 16.312,7.951 16.312,7.951 C18.276,6.844 20.418,6.020 22.690,5.557 C22.690,5.557 24.012,0.968 24.012,0.968 C24.032,0.416 24.495,-0.015 25.047,0.004 C25.047,0.004 31.044,0.217 31.044,0.217 C31.596,0.237 32.027,0.700 32.007,1.252 C32.007,1.252 33.000,5.924 33.000,5.924 C35.234,6.546 37.313,7.520 39.193,8.764 C39.193,8.764 43.386,6.446 43.386,6.446 C43.791,6.070 44.423,6.092 44.800,6.497 C44.800,6.497 48.889,10.887 48.889,10.887 C49.266,11.291 49.243,11.924 48.839,12.301 C48.839,12.301 46.232,16.315 46.232,16.315 C47.342,18.281 48.169,20.425 48.632,22.700 C48.632,22.700 53.212,24.020 53.212,24.020 C53.764,24.039 54.196,24.503 54.176,25.055 C54.176,25.055 53.963,31.051 53.963,31.051 ZM27.548,14.102 C27.548,14.102 27.548,14.102 27.548,14.102 C20.373,13.847 14.350,19.457 14.095,26.632 C13.967,30.220 15.306,33.519 17.574,35.954 C17.574,35.954 17.574,35.954 17.574,35.954 C19.841,38.388 23.037,39.958 26.625,40.086 C26.625,40.086 26.625,40.086 26.625,40.086 C33.800,40.341 39.823,34.731 40.078,27.555 C40.078,27.555 40.078,27.555 40.078,27.555 C40.333,20.380 34.723,14.357 27.548,14.102 ZM26.793,35.354 C22.231,35.192 18.664,31.362 18.826,26.800 C18.988,22.238 22.818,18.671 27.380,18.833 C31.942,18.995 35.509,22.825 35.347,27.387 C35.185,31.949 31.355,35.516 26.793,35.354 Z" id="path-1" class="cls-2" fill-rule="evenodd"/>
</svg>
