<svg xmlns="http://www.w3.org/2000/svg" xmlns:xlink="http://www.w3.org/1999/xlink" preserveAspectRatio="xMidYMid" width="108" height="108" viewBox="0 0 108 108">
  <defs>
    <style>

      .cls-2 {
        fill: #00cacc;
      }
    </style>
  </defs>
  <path d="M106.000,62.000 C106.000,62.000 96.776,64.306 96.776,64.306 C95.689,68.831 93.881,73.070 91.517,76.930 C91.517,76.930 96.426,85.113 96.426,85.113 C97.207,85.894 97.207,87.160 96.426,87.941 C96.426,87.941 87.941,96.426 87.941,96.426 C87.160,97.207 85.894,97.207 85.113,96.426 C85.113,96.426 76.930,91.517 76.930,91.517 C73.070,93.881 68.832,95.687 64.307,96.774 C64.307,96.774 62.000,106.000 62.000,106.000 C62.000,107.105 61.105,108.000 60.000,108.000 C60.000,108.000 48.000,108.000 48.000,108.000 C46.895,108.000 46.000,107.105 46.000,106.000 C46.000,106.000 43.693,96.774 43.693,96.774 C39.168,95.687 34.930,93.881 31.070,91.517 C31.070,91.517 22.887,96.426 22.887,96.426 C22.106,97.207 20.840,97.207 20.059,96.426 C20.059,96.426 11.574,87.941 11.574,87.941 C10.793,87.160 10.793,85.894 11.574,85.113 C11.574,85.113 16.483,76.930 16.483,76.930 C14.119,73.070 12.311,68.831 11.224,64.306 C11.224,64.306 2.000,62.000 2.000,62.000 C0.895,62.000 0.000,61.105 0.000,60.000 C0.000,60.000 0.000,48.000 0.000,48.000 C0.000,46.895 0.895,46.000 2.000,46.000 C2.000,46.000 11.224,43.694 11.224,43.694 C12.311,39.169 14.119,34.930 16.483,31.070 C16.483,31.070 11.574,22.887 11.574,22.887 C10.793,22.106 10.793,20.840 11.574,20.059 C11.574,20.059 20.059,11.574 20.059,11.574 C20.840,10.793 22.106,10.793 22.887,11.574 C22.887,11.574 31.070,16.483 31.070,16.483 C34.930,14.119 39.168,12.313 43.693,11.226 C43.693,11.226 46.000,2.000 46.000,2.000 C46.000,0.895 46.895,0.000 48.000,0.000 C48.000,0.000 60.000,0.000 60.000,0.000 C61.105,0.000 62.000,0.895 62.000,2.000 C62.000,2.000 64.307,11.226 64.307,11.226 C68.832,12.313 73.070,14.119 76.930,16.483 C76.930,16.483 85.113,11.574 85.113,11.574 C85.894,10.793 87.160,10.793 87.941,11.574 C87.941,11.574 96.426,20.059 96.426,20.059 C97.207,20.840 97.207,22.106 96.426,22.887 C96.426,22.887 91.517,31.070 91.517,31.070 C93.881,34.930 95.689,39.169 96.776,43.694 C96.776,43.694 106.000,46.000 106.000,46.000 C107.105,46.000 108.000,46.895 108.000,48.000 C108.000,48.000 108.000,60.000 108.000,60.000 C108.000,61.105 107.105,62.000 106.000,62.000 ZM54.000,28.000 C39.641,28.000 28.000,39.641 28.000,54.000 C28.000,68.359 39.641,80.000 54.000,80.000 C68.359,80.000 80.000,68.359 80.000,54.000 C80.000,39.641 68.359,28.000 54.000,28.000 ZM54.000,70.531 C44.870,70.531 37.469,63.130 37.469,54.000 C37.469,44.870 44.870,37.469 54.000,37.469 C63.130,37.469 70.531,44.870 70.531,54.000 C70.531,63.130 63.130,70.531 54.000,70.531 Z" id="path-1" class="cls-2" fill-rule="evenodd"/>
</svg>
