<svg version="1.1" xmlns="http://www.w3.org/2000/svg" xmlns:xlink="http://www.w3.org/1999/xlink" width="128" height="128" viewBox="0 0 128 128">
<g id="error-compass-ma">
<path id="Indicator" d="M63.421,109.192 C63.421,109.192 49.925,71.719 49.924,64.186 C59.036,64.186 67.673,64.186 76.915,64.186 C76.916,71.719 63.421,109.192 63.421,109.192 z" fill="#F0F0F0" />
<path id="Indicator" d="M63.921,109.192 C63.921,109.192 49.925,71.719 49.925,64.186 C59.374,64.186 54.338,64.188 63.922,64.187 C63.923,71.721 63.921,109.192 63.921,109.192 z" fill="#FFFFFF" />
<path id="Indicator" d="M63.421,19.181 C63.421,19.181 76.917,56.655 76.915,64.186 C66.367,64.186 60.058,64.186 49.924,64.186 C49.925,56.655 63.421,19.181 63.421,19.181 z" fill="#F15B00" />
<path id="Indicator" d="M63.921,19.181 C63.921,19.181 63.924,56.657 63.922,64.187 C52.983,64.188 60.433,64.186 49.925,64.186 C49.925,56.655 63.921,19.181 63.921,19.181 z" fill="#FFFFFF" fill-opacity="0.161" />
<path id="Indicator" d="M63.921,58.186 C67.234,58.186 69.920,60.872 69.920,64.186 C69.920,67.500 67.234,70.186 63.920,70.186 C60.606,70.186 57.920,67.500 57.921,64.186 C57.920,60.872 60.606,58.186 63.921,58.186 z" fill="#353738" />
</g>
</svg>
