<?xml version="1.0" encoding="utf-8"?>
<!-- Generator: Adobe Illustrator 21.0.0, SVG Export Plug-In . SVG Version: 6.00 Build 0)  -->
<svg version="1.1" id="Layer_1" xmlns="http://www.w3.org/2000/svg" xmlns:xlink="http://www.w3.org/1999/xlink" x="0px" y="0px"
	 viewBox="0 0 64 64" style="enable-background:new 0 0 64 64;" xml:space="preserve">
<style type="text/css">
	.st0{fill:#E83665;}
</style>
<path class="st0" d="M55.4,43.5L43.7,31.9l11.6-11.6c0.4-0.4,0.6-0.9,0.6-1.5c0-0.6-0.2-1.1-0.6-1.5l-8.8-8.8
	c-0.7-0.7-2.2-0.7-2.9,0L32,20.2L20.4,8.6c-0.8-0.7-2.2-0.7-2.9,0l-8.9,8.9c-0.8,0.8-0.8,2.1,0,2.9L20.2,32L8.7,43.5
	c-0.4,0.4-0.6,0.9-0.6,1.5c0,0.6,0.2,1.1,0.6,1.5l8.8,8.8c0.8,0.8,2.1,0.8,2.9,0l11.5-11.5l11.7,11.7c0.4,0.4,0.9,0.6,1.5,0.6
	c0,0,0,0,0,0c0.6,0,1.1-0.2,1.5-0.6l8.9-8.9c0.4-0.4,0.6-0.9,0.6-1.5C56,44.4,55.8,43.9,55.4,43.5z"/>
</svg>
