<svg version="1.1" xmlns="http://www.w3.org/2000/svg" xmlns:xlink="http://www.w3.org/1999/xlink" width="32" height="32" viewBox="0 0 32 32">
<g id="menu-ic-web">
<path id="menu-ic-web" d="M25.699,23.987 C25.699,23.987 6.301,23.987 6.301,23.987 C5.583,23.987 5.000,23.406 5.000,22.692 C5.000,22.692 5.000,21.496 5.000,21.496 C5.000,21.220 5.224,20.998 5.500,20.998 C5.500,20.998 14.761,20.998 14.761,20.998 C15.038,20.998 15.261,21.220 15.261,21.496 C15.261,21.496 15.261,21.798 15.261,21.798 L16.805,21.733 C16.805,21.733 16.739,21.496 16.739,21.496 C16.739,21.220 16.963,20.998 17.239,20.998 C17.239,20.998 26.500,20.998 26.500,20.998 C26.776,20.998 27.000,21.220 27.000,21.496 C27.000,21.496 27.000,22.692 27.000,22.692 C27.000,23.406 26.416,23.987 25.699,23.987 zM26.000,21.994 C26.000,21.994 17.719,21.994 17.719,21.994 C17.628,22.414 17.253,22.730 16.805,22.730 C16.805,22.730 15.196,22.730 15.196,22.730 C14.747,22.730 14.372,22.414 14.282,21.994 C14.282,21.994 6.001,21.994 6.001,21.994 C6.001,21.994 6.001,22.692 6.001,22.692 C6.001,22.856 6.135,22.991 6.301,22.991 C6.301,22.991 25.699,22.991 25.699,22.991 C25.865,22.991 26.000,22.856 26.000,22.692 C26.000,22.692 26.000,21.994 26.000,21.994 zM24.489,19.991 C24.213,19.991 23.989,19.769 23.989,19.493 C23.989,19.493 23.989,9.215 23.989,9.215 C23.989,9.168 23.976,9.012 23.803,9.012 C23.803,9.012 8.197,9.012 8.197,9.012 C8.072,9.012 7.984,9.096 7.984,9.215 C7.984,9.215 7.984,19.493 7.984,19.493 C7.984,19.769 7.760,19.991 7.484,19.991 C7.208,19.991 6.984,19.769 6.984,19.493 C6.984,19.493 6.984,9.215 6.984,9.215 C6.984,8.543 7.517,8.015 8.197,8.015 C8.197,8.015 23.803,8.015 23.803,8.015 C24.468,8.015 24.989,8.543 24.989,9.215 C24.989,9.215 24.989,19.493 24.989,19.493 C24.989,19.769 24.766,19.991 24.489,19.991 z" fill="#91CA77" />
</g>
</svg>
