<svg version="1.1" xmlns="http://www.w3.org/2000/svg" xmlns:xlink="http://www.w3.org/1999/xlink" width="72" height="72" viewBox="0 0 72 72">
<g id="welcome-icon">
<path id="welcome-icon" d="M59.881,38.999 C59.870,39.275 59.705,39.626 59.496,39.808 C59.205,40.059 58.804,40.088 58.556,40.109 C58.556,40.109 57.530,58.904 57.530,58.904 C57.501,59.437 57.059,59.851 56.531,59.851 C56.513,59.851 56.496,59.851 56.476,59.849 C55.925,59.819 55.501,59.347 55.532,58.795 C55.532,58.795 56.604,39.165 56.604,39.165 C56.617,38.894 56.787,38.542 56.992,38.364 C57.274,38.120 57.604,38.061 57.911,38.060 C58.218,28.713 57.735,25.853 57.497,25.034 C57.315,25.028 57.090,25.019 56.887,25.010 C56.887,25.010 56.310,24.984 56.310,24.984 C56.248,24.976 56.162,25.059 56.103,25.171 C55.558,26.252 54.379,26.926 53.027,26.926 C51.676,26.926 50.498,26.252 49.950,25.170 C49.894,25.058 49.806,24.976 49.747,24.984 C49.270,25.037 41.026,26.391 38.252,26.860 C38.252,26.860 48.547,27.787 48.547,27.787 C49.061,27.837 49.454,28.267 49.454,28.784 C49.454,28.784 49.454,39.220 49.454,39.220 C49.454,39.220 50.523,58.795 50.523,58.795 C50.554,59.347 50.130,59.819 49.579,59.849 C48.992,59.934 48.557,59.456 48.525,58.904 C48.525,58.904 47.454,39.274 47.454,39.274 L47.452,29.696 C47.452,29.696 38.065,28.821 38.065,28.821 C37.070,28.727 36.319,27.925 36.282,26.914 C36.245,25.889 36.917,25.055 37.920,24.886 C39.679,24.589 49.192,23.014 49.616,22.986 C50.491,22.931 51.305,23.418 51.735,24.264 C52.229,25.241 53.832,25.235 54.319,24.266 C54.749,23.420 55.560,22.927 56.437,22.986 C56.437,22.986 56.971,23.010 56.971,23.010 C58.003,23.054 58.218,23.070 58.402,23.122 C58.542,23.162 58.673,23.233 58.783,23.328 C59.227,23.707 60.403,24.717 59.881,38.999 zM53.029,22.562 C50.798,22.562 49.319,19.761 49.319,17.908 C49.319,15.834 50.982,14.148 53.029,14.148 C55.073,14.148 56.736,15.834 56.736,17.908 C56.736,19.761 55.257,22.562 53.029,22.562 zM53.029,16.149 C52.086,16.149 51.320,16.938 51.320,17.908 C51.320,19.073 52.278,20.560 53.029,20.560 C53.777,20.560 54.735,19.073 54.735,17.908 C54.735,16.938 53.969,16.149 53.029,16.149 zM53.029,41.247 C53.582,41.247 54.029,41.696 54.029,42.248 C54.029,42.248 54.027,58.849 54.027,58.849 C54.027,59.403 53.580,59.851 53.027,59.851 C52.474,59.851 52.026,59.402 52.026,58.849 C52.026,58.849 52.028,42.248 52.028,42.248 C52.028,41.695 52.475,41.247 53.029,41.247 z" fill="#758A9A" />
<path id="welcome-icon" d="M46.022,15.967 C46.022,15.967 13.998,15.967 13.998,15.967 L13.998,47.990 C13.998,47.990 44.020,47.990 44.020,47.990 C44.573,47.990 45.021,48.438 45.021,48.991 C45.021,49.544 44.573,49.992 44.020,49.992 C44.020,49.992 12.997,49.992 12.997,49.992 C12.444,49.992 11.997,49.544 11.997,48.991 C11.997,48.991 11.997,14.967 11.997,14.967 C11.997,14.414 12.444,13.966 12.997,13.966 C12.997,13.966 30.010,13.966 30.010,13.966 C30.010,13.966 30.010,13.003 30.010,13.003 C30.010,12.449 30.457,12.002 31.011,12.002 C31.564,12.002 32.011,12.449 32.011,13.003 C32.011,13.003 32.011,13.966 32.011,13.966 L42.019,13.966 C42.019,13.966 42.019,13.003 42.019,13.003 C42.019,12.449 42.466,12.002 43.019,12.002 C43.573,12.002 44.020,12.449 44.020,13.003 C44.020,13.003 44.020,13.966 44.020,13.966 C44.020,13.966 46.022,13.966 46.022,13.966 C46.575,13.966 47.022,14.414 47.022,14.967 C47.022,15.520 46.575,15.967 46.022,15.967 zM30.010,57.998 C30.010,57.998 36.014,57.998 36.014,57.998 C36.014,57.998 36.014,53.246 36.014,53.246 C36.014,52.693 36.462,52.245 37.015,52.245 C37.568,52.245 38.016,52.693 38.016,53.246 C38.016,53.246 38.016,57.998 38.016,57.998 C38.016,57.998 42.019,57.998 42.019,57.998 C42.572,57.998 43.019,58.445 43.019,58.998 C43.019,59.551 42.572,59.999 42.019,59.999 C42.019,59.999 30.010,59.999 30.010,59.999 C29.457,59.999 29.009,59.551 29.009,58.998 C29.009,58.445 29.457,57.998 30.010,57.998 z" fill="#00C2C5" />
<path id="Rounded-Rectangl" d="M29.000,24.000 C29.000,24.000 19.000,24.000 19.000,24.000 C18.448,24.000 18.000,23.552 18.000,23.000 C18.000,22.448 18.448,22.000 19.000,22.000 C19.000,22.000 29.000,22.000 29.000,22.000 C29.552,22.000 30.000,22.448 30.000,23.000 C30.000,23.552 29.552,24.000 29.000,24.000 zM19.000,27.000 C19.000,27.000 27.000,27.000 27.000,27.000 C27.552,27.000 28.000,27.448 28.000,28.000 C28.000,28.552 27.552,29.000 27.000,29.000 C27.000,29.000 19.000,29.000 19.000,29.000 C18.448,29.000 18.000,28.552 18.000,28.000 C18.000,27.448 18.448,27.000 19.000,27.000 zM19.000,32.000 C19.000,32.000 28.000,32.000 28.000,32.000 C28.552,32.000 29.000,32.448 29.000,33.000 C29.000,33.552 28.552,34.000 28.000,34.000 C28.000,34.000 19.000,34.000 19.000,34.000 C18.448,34.000 18.000,33.552 18.000,33.000 C18.000,32.448 18.448,32.000 19.000,32.000 zM19.000,37.000 C19.000,37.000 25.000,37.000 25.000,37.000 C25.552,37.000 26.000,37.448 26.000,38.000 C26.000,38.552 25.552,39.000 25.000,39.000 C25.000,39.000 19.000,39.000 19.000,39.000 C18.448,39.000 18.000,38.552 18.000,38.000 C18.000,37.448 18.448,37.000 19.000,37.000 z" fill="#00C2C5" />
</g>
</svg>
