<svg version="1.1" xmlns="http://www.w3.org/2000/svg" xmlns:xlink="http://www.w3.org/1999/xlink" width="172" height="172" viewBox="0 0 172 172">
<g id="home-icon-projec">
<path id="Rectangle-27" d="M22.000,62.000 C22.000,62.000 150.000,62.000 150.000,62.000 C152.209,62.000 154.000,63.790 154.000,66.000 C154.000,66.000 148.000,130.000 148.000,130.000 C148.000,132.209 146.209,134.000 144.000,134.000 C144.000,134.000 28.000,134.000 28.000,134.000 C25.791,134.000 24.000,132.209 24.000,130.000 C24.000,130.000 18.000,66.000 18.000,66.000 C18.000,63.790 19.791,62.000 22.000,62.000 z" fill="#758A9A" />
<path id="Rectangle-27" d="M23.000,64.000 C23.000,64.000 149.000,64.000 149.000,64.000 C150.657,64.000 152.000,65.343 152.000,67.000 C152.000,67.000 146.000,129.000 146.000,129.000 C146.000,130.657 144.657,132.000 143.000,132.000 C143.000,132.000 29.000,132.000 29.000,132.000 C27.343,132.000 26.000,130.657 26.000,129.000 C26.000,129.000 20.000,67.000 20.000,67.000 C20.000,65.343 21.343,64.000 23.000,64.000 z" fill="#F9F9F9" />
<path id="Rectangle-28" d="M23.000,56.000 C23.000,56.000 149.000,56.000 149.000,56.000 C149.552,56.000 150.000,56.448 150.000,57.000 C150.000,57.552 149.552,58.000 149.000,58.000 C149.000,58.000 23.000,58.000 23.000,58.000 C22.448,58.000 22.000,57.552 22.000,57.000 C22.000,56.448 22.448,56.000 23.000,56.000 z" fill="#008AE0" />
<path id="Rectangle-28" d="M59.000,82.000 C59.000,82.000 113.000,82.000 113.000,82.000 C113.552,82.000 114.000,82.448 114.000,83.000 C114.000,83.552 113.552,84.000 113.000,84.000 C113.000,84.000 59.000,84.000 59.000,84.000 C58.448,84.000 58.000,83.552 58.000,83.000 C58.000,82.448 58.448,82.000 59.000,82.000 z" fill="#008AE0" />
<path id="Rectangle-29" d="M145.000,52.000 C145.000,52.000 27.000,52.000 27.000,52.000 C26.448,52.000 26.000,51.552 26.000,51.000 C26.000,51.000 26.000,51.000 26.000,51.000 C26.000,50.448 26.448,50.000 27.000,50.000 C27.000,50.000 32.000,50.000 32.000,50.000 C32.000,50.000 37.949,38.000 42.000,38.000 C44.122,38.000 64.074,38.000 66.000,38.000 C69.958,38.000 76.000,50.000 76.000,50.000 C76.000,50.000 145.000,50.000 145.000,50.000 C145.552,50.000 146.000,50.448 146.000,51.000 C146.000,51.000 146.000,51.000 146.000,51.000 C146.000,51.552 145.552,52.000 145.000,52.000 z" fill="#758A9A" />
<path id="Rectangle-29" d="M43.000,40.000 C45.122,40.000 63.074,40.000 65.000,40.000 C68.958,40.000 73.000,50.000 73.000,50.000 L35.000,50.000 C35.000,50.000 38.949,40.000 43.000,40.000 z" fill="#F9F9F9" />
</g>
</svg>
