<svg version="1.1" xmlns="http://www.w3.org/2000/svg" xmlns:xlink="http://www.w3.org/1999/xlink" width="172" height="172" viewBox="0 0 172 172">
<g id="home-icon-mobile">
<g id="Phone">
<path id="Rounded-Rectangl" d="M37.000,20.000 C37.000,20.000 139.000,20.000 139.000,20.000 C150.046,20.000 159.000,28.954 159.000,40.000 C159.000,40.000 159.000,148.000 159.000,148.000 L17.000,148.000 C17.000,148.000 17.000,40.000 17.000,40.000 C17.000,28.954 25.954,20.000 37.000,20.000 z" fill="#758A9A" />
<path id="Rounded-Rectangl" d="M39.000,22.000 C39.000,22.000 137.000,22.000 137.000,22.000 C148.046,22.000 157.000,30.954 157.000,42.000 C157.000,42.000 157.000,156.000 157.000,156.000 L19.000,156.000 C19.000,156.000 19.000,42.000 19.000,42.000 C19.000,30.954 27.954,22.000 39.000,22.000 z" fill="#F9F9F9" />
<path id="Rounded-Rectangl" d="M119.000,16.000 C119.000,16.000 137.000,16.000 137.000,16.000 C138.105,16.000 139.000,16.895 139.000,18.000 C139.000,18.000 139.000,22.000 139.000,22.000 L117.000,22.000 C117.000,22.000 117.000,18.000 117.000,18.000 C117.000,16.895 117.895,16.000 119.000,16.000 zM15.000,61.000 C15.000,61.000 19.000,61.000 19.000,61.000 L19.000,78.000 C19.000,78.000 15.000,78.000 15.000,78.000 C13.895,78.000 13.000,77.105 13.000,76.000 C13.000,76.000 13.000,63.000 13.000,63.000 C13.000,61.895 13.895,61.000 15.000,61.000 zM15.000,86.000 C15.000,86.000 19.000,86.000 19.000,86.000 L19.000,103.000 C19.000,103.000 15.000,103.000 15.000,103.000 C13.895,103.000 13.000,102.104 13.000,101.000 C13.000,101.000 13.000,88.000 13.000,88.000 C13.000,86.895 13.895,86.000 15.000,86.000 z" fill="#758A9A" />
<path id="Rounded-Rectangl" d="M120.000,18.000 C120.000,18.000 136.000,18.000 136.000,18.000 C136.552,18.000 137.000,18.448 137.000,19.000 C137.000,19.000 137.000,20.000 137.000,20.000 L119.000,20.000 C119.000,20.000 119.000,19.000 119.000,19.000 C119.000,18.448 119.448,18.000 120.000,18.000 zM16.000,63.000 C16.000,63.000 17.000,63.000 17.000,63.000 L17.000,76.000 C17.000,76.000 16.000,76.000 16.000,76.000 C15.448,76.000 15.000,75.552 15.000,75.000 C15.000,75.000 15.000,64.000 15.000,64.000 C15.000,63.448 15.448,63.000 16.000,63.000 zM16.000,88.000 C16.000,88.000 17.000,88.000 17.000,88.000 L17.000,101.000 C17.000,101.000 16.000,101.000 16.000,101.000 C15.448,101.000 15.000,100.552 15.000,100.000 C15.000,100.000 15.000,89.000 15.000,89.000 C15.000,88.448 15.448,88.000 16.000,88.000 z" fill="#F9F9F9" />
<path id="Ellipse-1" d="M88.000,38.000 C89.105,38.000 90.000,38.895 90.000,40.000 C90.000,41.104 89.105,42.000 88.000,42.000 C86.895,42.000 86.000,41.104 86.000,40.000 C86.000,38.895 86.895,38.000 88.000,38.000 z" fill="#758A9A" />
<path id="Rectangle-9" d="M74.000,46.000 C74.000,46.000 102.000,46.000 102.000,46.000 C102.552,46.000 103.000,46.448 103.000,47.000 C103.000,47.552 102.552,48.000 102.000,48.000 C102.000,48.000 74.000,48.000 74.000,48.000 C73.448,48.000 73.000,47.552 73.000,47.000 C73.000,46.448 73.448,46.000 74.000,46.000 z" fill="#758A9A" />
<path id="Rectangle-11" d="M29.000,60.000 C29.000,60.000 147.000,60.000 147.000,60.000 C148.105,60.000 149.000,60.895 149.000,62.000 C149.000,62.000 149.000,148.000 149.000,148.000 L27.000,148.000 C27.000,148.000 27.000,62.000 27.000,62.000 C27.000,60.895 27.895,60.000 29.000,60.000 z" fill="#758A9A" />
<path id="Rectangle-11" d="M30.000,62.000 C30.000,62.000 146.000,62.000 146.000,62.000 C146.552,62.000 147.000,62.448 147.000,63.000 C147.000,63.000 147.000,156.000 147.000,156.000 L29.000,156.000 C29.000,156.000 29.000,63.000 29.000,63.000 C29.000,62.448 29.448,62.000 30.000,62.000 z" fill="#F9F9F9" />
<path id="Ellipse-2" d="M54.000,73.000 C52.895,73.000 52.000,72.104 52.000,71.000 C52.000,69.895 52.895,69.000 54.000,69.000 C55.105,69.000 56.000,69.895 56.000,71.000 C56.000,72.104 55.105,73.000 54.000,73.000 zM48.000,73.000 C46.895,73.000 46.000,72.104 46.000,71.000 C46.000,69.895 46.895,69.000 48.000,69.000 C49.104,69.000 50.000,69.895 50.000,71.000 C50.000,72.104 49.104,73.000 48.000,73.000 zM42.000,73.000 C40.895,73.000 40.000,72.104 40.000,71.000 C40.000,69.895 40.895,69.000 42.000,69.000 C43.105,69.000 44.000,69.895 44.000,71.000 C44.000,72.104 43.105,73.000 42.000,73.000 zM36.000,73.000 C34.895,73.000 34.000,72.104 34.000,71.000 C34.000,69.895 34.895,69.000 36.000,69.000 C37.104,69.000 38.000,69.895 38.000,71.000 C38.000,72.104 37.104,73.000 36.000,73.000 z" fill="#758A9A" />
<path id="Rectangle-14" d="M127.000,67.000 C127.000,67.000 142.000,67.000 142.000,67.000 C142.552,67.000 143.000,67.448 143.000,68.000 C143.000,68.000 143.000,74.000 143.000,74.000 C143.000,74.552 142.552,75.000 142.000,75.000 C142.000,75.000 127.000,75.000 127.000,75.000 C126.448,75.000 126.000,74.552 126.000,74.000 C126.000,74.000 126.000,68.000 126.000,68.000 C126.000,67.448 126.448,67.000 127.000,67.000 zM143.000,70.000 C143.552,70.000 144.000,70.447 144.000,71.000 C144.000,71.552 143.552,72.000 143.000,72.000 C143.000,72.000 143.000,70.000 143.000,70.000 z" fill="#758A9A" />
<path id="Rectangle-14" d="M131.000,68.000 L142.000,68.000 L142.000,74.000 L131.000,74.000 L131.000,68.000 z" fill="#F9F9F9" />
<path id="Rectangle-26" d="M127.000,68.000 L137.000,68.000 L137.000,74.000 L127.000,74.000 L127.000,68.000 z" fill="#D2DDE7" />
</g>
<g id="Artwork">
<path id="vector" d="M111.000,123.000 L111.000,130.918 L103.000,130.918 L103.000,128.000 L90.000,128.000 L90.000,127.129 L90.000,126.000 C90.000,126.000 90.000,125.108 90.000,125.108 C98.000,125.108 104.017,118.792 104.017,110.708 C104.017,110.708 106.017,110.708 106.017,110.708 C106.017,117.692 101.872,123.618 95.876,126.000 C95.876,126.000 103.000,126.000 103.000,126.000 L103.000,123.000 L111.000,123.000 zM69.750,142.034 C69.750,142.034 67.750,142.034 67.750,142.034 C67.750,135.944 71.009,130.765 75.859,128.000 C75.859,128.000 70.000,128.000 70.000,128.000 L70.000,130.918 L62.000,130.918 L62.000,123.000 L70.000,123.000 L70.000,126.000 C70.000,126.000 81.866,126.000 81.866,126.000 C82.566,125.910 83.274,125.848 84.000,125.848 C84.000,125.848 84.000,126.000 84.000,126.000 L84.000,127.869 L84.000,128.000 C84.000,128.000 82.103,128.000 82.103,128.000 C75.036,128.878 69.750,134.603 69.750,142.034 z" fill="#758A9A" />
<path id="vector" d="M105.000,129.000 L105.000,125.000 L109.000,125.000 L109.000,129.000 L105.000,129.000 zM64.000,125.000 L68.000,125.000 L68.000,129.000 L64.000,129.000 L64.000,125.000 z" fill="#F9F9F9" />
<path id="vector" d="M105.250,112.476 C102.768,112.476 100.750,110.436 100.750,107.928 C100.750,105.421 102.768,103.382 105.250,103.382 C107.731,103.382 109.750,105.421 109.750,107.928 C109.750,110.436 107.731,112.476 105.250,112.476 zM86.750,131.171 C84.268,131.171 82.250,129.131 82.250,126.623 C82.250,124.116 84.268,122.076 86.750,122.076 C89.231,122.076 91.250,124.116 91.250,126.623 C91.250,129.131 89.231,131.171 86.750,131.171 zM68.750,149.360 C66.268,149.360 64.250,147.321 64.250,144.813 C64.250,142.305 66.268,140.266 68.750,140.266 C71.231,140.266 73.250,142.305 73.250,144.813 C73.250,147.321 71.231,149.360 68.750,149.360 z" fill="#008AE0" />
<path id="vector" d="M105.250,110.455 C103.871,110.455 102.750,109.322 102.750,107.928 C102.750,106.536 103.871,105.402 105.250,105.402 C106.629,105.402 107.750,106.536 107.750,107.928 C107.750,109.322 106.629,110.455 105.250,110.455 zM86.750,129.149 C85.371,129.149 84.250,128.017 84.250,126.623 C84.250,125.231 85.371,124.097 86.750,124.097 C88.129,124.097 89.249,125.231 89.249,126.623 C89.249,128.017 88.129,129.149 86.750,129.149 zM68.750,147.339 C67.371,147.339 66.250,146.206 66.250,144.813 C66.250,143.420 67.371,142.287 68.750,142.287 C70.128,142.287 71.250,143.420 71.250,144.813 C71.250,146.206 70.128,147.339 68.750,147.339 z" fill="#F9F9F9" />
<path id="ruler" d="M116.042,151.027 L95.975,130.960 L96.679,130.256 L116.746,150.322 L116.042,151.027 zM91.399,136.944 C91.205,137.139 91.205,137.454 91.399,137.649 C91.399,137.649 109.353,155.603 109.353,155.603 C109.547,155.797 109.863,155.796 110.057,155.603 C110.057,155.603 114.634,151.027 114.634,151.027 L115.338,151.730 C115.338,151.730 110.761,156.307 110.761,156.307 C110.470,156.598 110.087,156.744 109.704,156.744 C109.322,156.744 108.940,156.598 108.649,156.308 C108.649,156.308 90.695,138.353 90.695,138.353 C90.413,138.071 90.257,137.695 90.257,137.297 C90.257,136.897 90.413,136.522 90.695,136.240 C90.695,136.240 95.271,131.664 95.271,131.664 L95.975,132.368 C95.975,132.368 91.399,136.944 91.399,136.944 z" fill="#758A9A" />
<path id="ruler" d="M111.465,152.082 L110.761,151.379 L112.873,149.266 L113.577,149.970 L111.465,152.082 zM107.593,151.027 L111.113,147.506 L111.817,148.210 L108.297,151.730 L107.593,151.027 zM107.241,147.858 L109.353,145.746 L110.057,146.450 L107.945,148.562 L107.241,147.858 zM104.072,147.506 L107.593,143.985 L108.297,144.689 L104.776,148.210 L104.072,147.506 zM103.720,144.337 L105.833,142.225 L106.537,142.929 L104.424,145.041 L103.720,144.337 zM100.552,143.985 L104.072,140.465 L104.776,141.169 L101.256,144.689 L100.552,143.985 zM100.200,140.817 L102.312,138.705 L103.016,139.409 L100.904,141.521 L100.200,140.817 zM97.031,140.465 L100.552,136.945 L101.256,137.649 L97.735,141.169 L97.031,140.465 zM96.679,137.297 L98.792,135.184 L99.496,135.888 L97.383,138.001 L96.679,137.297 zM93.511,136.945 L97.031,133.425 L97.735,134.128 L94.215,137.649 L93.511,136.945 z" fill="#758A9A" />
<path id="pencil" d="M83.896,119.387 C83.896,119.387 82.380,120.904 82.380,120.904 C82.284,120.999 82.156,121.050 82.026,121.050 C81.962,121.050 81.897,121.037 81.836,121.012 C81.836,121.012 76.133,118.664 76.133,118.664 L75.890,118.908 L62.101,105.119 L68.111,99.109 L81.900,112.897 L81.657,113.140 C81.657,113.140 84.005,118.843 84.005,118.843 C84.081,119.030 84.038,119.245 83.896,119.387 zM63.515,105.119 L75.890,117.493 L79.322,114.061 L80.486,112.897 L68.111,100.522 L63.515,105.119 zM80.891,113.907 L79.658,115.140 L76.899,117.899 L81.908,119.960 L82.953,118.916 L80.891,113.907 z" fill="#758A9A" />
<path id="pencil" d="M63.410,106.456 C63.410,106.456 60.673,103.719 60.673,103.719 C59.698,102.745 59.698,101.159 60.673,100.184 C60.673,100.184 63.176,97.680 63.176,97.680 C64.151,96.706 65.736,96.706 66.711,97.680 C66.711,97.680 69.629,100.598 69.629,100.598 L68.922,101.305 L64.117,105.750 L63.410,106.456 z" fill="#008AE0" />
</g>
</g>
</svg>
