<svg version="1.1" xmlns="http://www.w3.org/2000/svg" xmlns:xlink="http://www.w3.org/1999/xlink" width="172" height="172" viewBox="0 0 172 172">
<g id="home-icon-corpor">
<g id="Notebook">
<path id="Rectangle-1" d="M32.000,29.000 C32.000,29.000 67.000,29.000 67.000,29.000 C69.209,29.000 71.000,30.791 71.000,33.000 C71.000,33.000 71.000,77.000 71.000,77.000 C71.000,79.209 69.209,81.000 67.000,81.000 C67.000,81.000 32.000,81.000 32.000,81.000 L32.000,29.000 z" fill="#758A9A" />
<path id="Rectangle-1" d="M34.000,31.000 C34.000,31.000 67.000,31.000 67.000,31.000 C68.105,31.000 69.000,31.895 69.000,33.000 C69.000,33.000 69.000,77.000 69.000,77.000 C69.000,78.105 68.105,79.000 67.000,79.000 C67.000,79.000 34.000,79.000 34.000,79.000 L34.000,31.000 z" fill="#F9F9F9" />
<path id="Rectangle-1" d="M32.000,29.000 C32.000,29.000 63.000,29.000 63.000,29.000 C65.209,29.000 67.000,30.791 67.000,33.000 C67.000,33.000 67.000,77.000 67.000,77.000 C67.000,79.209 65.209,81.000 63.000,81.000 C63.000,81.000 32.000,81.000 32.000,81.000 L32.000,29.000 z" fill="#758A9A" />
<path id="Rectangle-1" d="M34.000,31.000 C34.000,31.000 63.000,31.000 63.000,31.000 C64.105,31.000 65.000,31.895 65.000,33.000 C65.000,33.000 65.000,77.000 65.000,77.000 C65.000,78.105 64.105,79.000 63.000,79.000 C63.000,79.000 34.000,79.000 34.000,79.000 L34.000,31.000 z" fill="#F9F9F9" />
<path id="Rectangle-2" d="M57.000,29.000 L59.000,29.000 L59.000,81.000 L57.000,81.000 L57.000,29.000 z" fill="#008AE0" />
<path id="Rectangle-3" d="M37.000,26.000 C37.000,26.000 41.000,26.000 41.000,26.000 C41.552,26.000 42.000,26.448 42.000,27.000 C42.000,27.000 42.000,29.000 42.000,29.000 L36.000,29.000 C36.000,29.000 36.000,27.000 36.000,27.000 C36.000,26.448 36.448,26.000 37.000,26.000 z" fill="#008AE0" />
<path id="Rectangle-3" d="M36.000,81.000 L42.000,81.000 C42.000,81.000 42.000,83.000 42.000,83.000 C42.000,83.552 41.552,84.000 41.000,84.000 C41.000,84.000 37.000,84.000 37.000,84.000 C36.447,84.000 36.000,83.552 36.000,83.000 C36.000,83.000 36.000,81.000 36.000,81.000 z" fill="#008AE0" />
</g>
<g id="Business-Card">
<path id="Rectangle-4" d="M121.000,33.000 C121.000,33.000 137.000,33.000 137.000,33.000 C138.105,33.000 139.000,33.895 139.000,35.000 C139.000,35.000 139.000,69.000 139.000,69.000 C139.000,70.105 138.105,71.000 137.000,71.000 C137.000,71.000 121.000,71.000 121.000,71.000 C119.895,71.000 119.000,70.105 119.000,69.000 C119.000,69.000 119.000,35.000 119.000,35.000 C119.000,33.895 119.895,33.000 121.000,33.000 z" fill="#758A9A" />
<path id="Rectangle-4" d="M121.000,35.000 L137.000,35.000 L137.000,69.000 L121.000,69.000 L121.000,35.000 z" fill="#F9F9F9" />
<path id="Rectangle-4" d="M103.000,64.177 C103.000,64.177 120.000,34.732 120.000,34.732 C120.552,33.775 121.775,33.447 122.732,34.000 C122.732,34.000 136.588,42.000 136.588,42.000 C137.545,42.552 137.872,43.775 137.320,44.732 C137.320,44.732 120.320,74.177 120.320,74.177 C119.768,75.133 118.545,75.461 117.588,74.909 C117.588,74.909 103.732,66.909 103.732,66.909 C102.775,66.356 102.447,65.133 103.000,64.177 z" fill="#758A9A" />
<path id="Rectangle-4" d="M104.732,65.176 L121.732,35.732 L135.588,43.732 L118.588,73.177 L104.732,65.176 z" fill="#F9F9F9" />
<path id="Rectangle-4" d="M89.823,51.000 C89.823,51.000 119.268,34.000 119.268,34.000 C120.224,33.447 121.447,33.775 121.999,34.732 C121.999,34.732 130.000,48.588 130.000,48.588 C130.552,49.545 130.224,50.768 129.267,51.320 C129.267,51.320 99.823,68.320 99.823,68.320 C98.866,68.872 97.643,68.545 97.091,67.588 C97.091,67.588 89.091,53.732 89.091,53.732 C88.538,52.775 88.866,51.552 89.823,51.000 z" fill="#758A9A" />
<path id="Rectangle-4" d="M90.823,52.732 L120.267,35.732 L128.268,49.588 L98.823,66.588 L90.823,52.732 z" fill="#F9F9F9" />
<path id="Rectangle-4" d="M85.000,33.000 C85.000,33.000 119.000,33.000 119.000,33.000 C120.105,33.000 121.000,33.895 121.000,35.000 C121.000,35.000 121.000,51.000 121.000,51.000 C121.000,52.105 120.105,53.000 119.000,53.000 C119.000,53.000 85.000,53.000 85.000,53.000 C83.895,53.000 83.000,52.105 83.000,51.000 C83.000,51.000 83.000,35.000 83.000,35.000 C83.000,33.895 83.895,33.000 85.000,33.000 z" fill="#758A9A" />
<path id="Rectangle-4" d="M85.000,35.000 L119.000,35.000 L119.000,51.000 L85.000,51.000 L85.000,35.000 z" fill="#F9F9F9" />
</g>
<g id="Pencil">
<path id="Rectangle-5" d="M59.000,137.000 L107.000,137.000 L115.000,141.416 L107.000,146.000 L59.000,146.000 L59.000,137.000 z" fill="#758A9A" />
<path id="Rectangle-5" d="M60.000,139.000 C60.000,139.000 105.000,139.000 105.000,139.000 L111.000,141.416 L105.000,144.000 C105.000,144.000 60.000,144.000 60.000,144.000 C58.895,144.000 59.000,144.104 59.000,143.000 C59.000,143.000 59.000,140.000 59.000,140.000 C59.000,138.895 58.895,139.000 60.000,139.000 z" fill="#F9F9F9" />
<path id="Rectangle-5" d="M59.000,137.000 C59.000,137.000 64.000,137.000 64.000,137.000 L64.000,146.000 C64.000,146.000 59.000,146.000 59.000,146.000 C57.895,146.000 57.000,145.104 57.000,144.000 C57.000,144.000 57.000,139.000 57.000,139.000 C57.000,137.895 57.895,137.000 59.000,137.000 z" fill="#008AE0" />
<path id="Rectangle-6" d="M64.000,141.000 L104.000,141.000 L104.000,142.000 L64.000,142.000 L64.000,141.000 z" fill="#758A9A" />
</g>
<g id="Envelope">
<path id="Rectangle-7" d="M35.000,93.000 C35.000,93.000 75.000,93.000 75.000,93.000 C76.489,93.000 78.000,94.572 78.000,96.000 C78.000,96.000 78.000,122.000 78.000,122.000 C78.000,123.657 76.656,125.000 75.000,125.000 C75.000,125.000 35.000,125.000 35.000,125.000 C33.343,125.000 32.000,123.657 32.000,122.000 C32.000,122.000 32.000,96.000 32.000,96.000 C32.000,94.541 33.572,93.000 35.000,93.000 z" fill="#758A9A" />
<path id="Rectangle-7" d="M35.000,95.000 C35.000,95.000 75.000,95.000 75.000,95.000 C75.552,95.000 76.000,95.448 76.000,96.000 C76.000,96.000 76.000,120.000 76.000,120.000 C76.000,121.657 74.657,123.000 73.000,123.000 C73.000,123.000 37.000,123.000 37.000,123.000 C35.343,123.000 34.000,121.657 34.000,120.000 C34.000,120.000 34.000,96.000 34.000,96.000 C34.000,95.448 34.448,95.000 35.000,95.000 z" fill="#F9F9F9" />
<path id="Rectangle-7" d="M33.999,93.000 C33.999,93.000 76.000,93.000 76.000,93.000 C76.989,93.000 78.000,93.978 78.000,95.000 C78.000,95.000 78.000,103.000 78.000,103.000 L55.000,117.000 L32.000,103.000 C32.000,103.000 32.000,95.000 32.000,95.000 C32.000,93.978 33.041,93.000 33.999,93.000 z" fill="#758A9A" />
<path id="Rectangle-7" d="M36.000,95.000 C36.000,95.000 74.000,95.000 74.000,95.000 C74.989,95.000 76.000,96.041 76.000,97.000 C76.000,97.000 76.000,102.000 76.000,102.000 L55.000,115.000 L33.999,102.000 C33.999,102.000 33.999,97.000 33.999,97.000 C33.999,96.010 35.072,95.000 36.000,95.000 z" fill="#F9F9F9" />
</g>
<g id="Papers">
<path id="Rectangle-8" d="M85.000,86.000 C85.000,86.000 136.000,86.000 136.000,86.000 C137.657,86.000 139.000,87.343 139.000,89.000 C139.000,89.000 139.000,122.000 139.000,122.000 C139.000,123.657 137.657,125.000 136.000,125.000 C136.000,125.000 85.000,125.000 85.000,125.000 C83.343,125.000 82.000,123.657 82.000,122.000 C82.000,122.000 82.000,89.000 82.000,89.000 C82.000,87.343 83.343,86.000 85.000,86.000 z" fill="#758A9A" />
<path id="Rectangle-8" d="M85.000,88.000 C85.000,88.000 136.000,88.000 136.000,88.000 C136.552,88.000 137.000,88.448 137.000,89.000 C137.000,89.000 137.000,122.000 137.000,122.000 C137.000,122.552 136.552,123.000 136.000,123.000 C136.000,123.000 85.000,123.000 85.000,123.000 C84.448,123.000 84.000,122.552 84.000,122.000 C84.000,122.000 84.000,89.000 84.000,89.000 C84.000,88.448 84.448,88.000 85.000,88.000 z" fill="#F9F9F9" />
<path id="Rectangle-8" d="M85.000,86.000 C85.000,86.000 132.000,86.000 132.000,86.000 C133.657,86.000 135.000,87.343 135.000,89.000 C135.000,89.000 135.000,122.000 135.000,122.000 C135.000,123.657 133.657,125.000 132.000,125.000 C132.000,125.000 85.000,125.000 85.000,125.000 C83.343,125.000 82.000,123.657 82.000,122.000 C82.000,122.000 82.000,89.000 82.000,89.000 C82.000,87.343 83.343,86.000 85.000,86.000 z" fill="#758A9A" />
<path id="Rectangle-8" d="M85.000,88.000 C85.000,88.000 132.000,88.000 132.000,88.000 C132.552,88.000 133.000,88.448 133.000,89.000 C133.000,89.000 133.000,122.000 133.000,122.000 C133.000,122.552 132.552,123.000 132.000,123.000 C132.000,123.000 85.000,123.000 85.000,123.000 C84.448,123.000 84.000,122.552 84.000,122.000 C84.000,122.000 84.000,89.000 84.000,89.000 C84.000,88.448 84.448,88.000 85.000,88.000 z" fill="#F9F9F9" />
<path id="Rounded-Rectangl" d="M90.000,93.000 C90.000,93.000 91.000,93.000 91.000,93.000 C91.552,93.000 92.000,93.448 92.000,94.000 C92.000,94.000 92.000,95.000 92.000,95.000 C92.000,95.552 91.552,96.000 91.000,96.000 C91.000,96.000 90.000,96.000 90.000,96.000 C89.448,96.000 89.000,95.552 89.000,95.000 C89.000,95.000 89.000,94.000 89.000,94.000 C89.000,93.448 89.448,93.000 90.000,93.000 z" fill="#758A9A" />
<path id="Rounded-Rectangl" d="M90.000,103.000 C90.000,103.000 91.000,103.000 91.000,103.000 C91.552,103.000 92.000,103.448 92.000,104.000 C92.000,104.000 92.000,105.000 92.000,105.000 C92.000,105.552 91.552,106.000 91.000,106.000 C91.000,106.000 90.000,106.000 90.000,106.000 C89.448,106.000 89.000,105.552 89.000,105.000 C89.000,105.000 89.000,104.000 89.000,104.000 C89.000,103.448 89.448,103.000 90.000,103.000 z" fill="#008AE0" />
<path id="Rounded-Rectangl" d="M90.000,114.000 C90.000,114.000 91.000,114.000 91.000,114.000 C91.552,114.000 92.000,114.448 92.000,115.000 C92.000,115.000 92.000,116.000 92.000,116.000 C92.000,116.552 91.552,117.000 91.000,117.000 C91.000,117.000 90.000,117.000 90.000,117.000 C89.448,117.000 89.000,116.552 89.000,116.000 C89.000,116.000 89.000,115.000 89.000,115.000 C89.000,114.448 89.448,114.000 90.000,114.000 z" fill="#758A9A" />
</g>
</g>
</svg>
