<svg version="1.1" xmlns="http://www.w3.org/2000/svg" xmlns:xlink="http://www.w3.org/1999/xlink" width="172" height="172" viewBox="0 0 172 172">
<g id="home-icon-web-de">
<g id="Browser">
<path id="Rectangle-15" d="M4.000,33.000 C4.000,33.000 168.000,33.000 168.000,33.000 C170.209,33.000 172.000,34.791 172.000,37.000 C172.000,37.000 172.000,140.000 172.000,140.000 L-0.000,140.000 C-0.000,140.000 -0.000,37.000 -0.000,37.000 C-0.000,34.791 1.791,33.000 4.000,33.000 z" fill="#758A9A" />
<path id="Rectangle-15" d="M5.000,35.000 C5.000,35.000 167.000,35.000 167.000,35.000 C168.657,35.000 170.000,36.343 170.000,38.000 C170.000,38.000 170.000,148.000 170.000,148.000 L2.000,148.000 C2.000,148.000 2.000,38.000 2.000,38.000 C2.000,36.343 3.343,35.000 5.000,35.000 z" fill="#F9F9F9" />
<path id="Rectangle-18" d="M38.000,49.999 C40.000,49.999 43.042,43.999 45.000,43.999 C51.658,43.999 60.341,43.999 67.000,43.999 C69.020,43.999 71.906,49.999 74.000,49.999 C76.093,49.999 74.000,51.000 74.000,51.000 L38.000,51.000 C38.000,51.000 36.000,49.999 38.000,49.999 z" fill="#008AE0" />
<path id="Rectangle-16" d="M2.000,50.000 L170.000,50.000 L170.000,51.000 L2.000,51.000 L2.000,50.000 z" fill="#758A9A" />
<path id="Rectangle-16" d="M2.000,63.000 L170.000,63.000 L170.000,64.000 L2.000,64.000 L2.000,63.000 z" fill="#758A9A" />
<path id="Rectangle-17" d="M7.000,49.999 C9.000,49.999 12.042,43.999 14.000,43.999 C20.658,43.999 29.341,43.999 36.000,43.999 C38.020,43.999 40.906,49.999 43.000,49.999 C45.093,49.999 43.000,51.000 43.000,51.000 L7.000,51.000 C7.000,51.000 5.000,49.999 7.000,49.999 z" fill="#758A9A" />
<path id="Rectangle-18" d="M14.000,45.000 C15.125,45.000 34.937,45.000 36.000,45.000 C37.062,45.000 41.000,51.000 41.000,51.000 L9.000,51.000 C9.000,51.000 12.875,45.000 14.000,45.000 z" fill="#F9F9F9" />
</g>
<g id="The-Three">
<path id="Ellipse-3" d="M148.000,40.000 C149.104,40.000 150.000,40.895 150.000,42.000 C150.000,43.104 149.104,44.000 148.000,44.000 C146.895,44.000 146.000,43.104 146.000,42.000 C146.000,40.895 146.895,40.000 148.000,40.000 z" fill="#758A9A" />
<path id="Ellipse-3" d="M155.000,40.000 C156.105,40.000 157.000,40.895 157.000,42.000 C157.000,43.104 156.105,44.000 155.000,44.000 C153.895,44.000 153.000,43.104 153.000,42.000 C153.000,40.895 153.895,40.000 155.000,40.000 z" fill="#758A9A" />
<path id="Ellipse-3" d="M162.000,40.000 C163.105,40.000 164.000,40.895 164.000,42.000 C164.000,43.104 163.105,44.000 162.000,44.000 C160.895,44.000 160.000,43.104 160.000,42.000 C160.000,40.895 160.895,40.000 162.000,40.000 z" fill="#008AE0" />
</g>
<g id="Cogs">
<path id="settings" d="M96.226,104.496 C96.101,104.496 95.974,104.520 95.852,104.568 C95.852,104.568 94.414,105.144 94.414,105.144 C94.003,105.308 93.748,105.721 93.786,106.161 C93.786,106.161 94.045,109.227 94.045,109.227 C93.415,109.702 92.846,110.248 92.345,110.863 C92.345,110.863 89.309,110.535 89.309,110.535 C89.273,110.531 89.236,110.530 89.200,110.530 C88.802,110.530 88.436,110.766 88.276,111.139 C88.276,111.139 87.667,112.562 87.667,112.562 C87.493,112.968 87.604,113.440 87.942,113.724 C87.942,113.724 90.230,115.656 90.230,115.656 C90.112,116.469 90.097,117.293 90.187,118.118 C90.187,118.118 87.870,119.984 87.870,119.984 C87.526,120.262 87.404,120.730 87.568,121.140 C87.568,121.140 88.144,122.576 88.144,122.576 C88.297,122.959 88.669,123.207 89.077,123.207 C89.105,123.207 89.133,123.205 89.161,123.203 C89.161,123.203 92.083,122.958 92.083,122.958 C92.592,123.642 93.184,124.251 93.850,124.778 C93.850,124.778 93.537,127.680 93.537,127.680 C93.489,128.118 93.734,128.537 94.141,128.711 C94.141,128.711 95.565,129.320 95.565,129.320 C95.693,129.374 95.827,129.400 95.961,129.400 C96.250,129.400 96.534,129.275 96.730,129.044 C96.730,129.044 98.614,126.813 98.614,126.813 C99.057,126.874 99.505,126.905 99.952,126.905 C100.349,126.905 100.749,126.880 101.146,126.831 C101.146,126.831 102.988,129.118 102.988,129.118 C103.183,129.360 103.474,129.492 103.772,129.492 C103.897,129.492 104.024,129.469 104.146,129.420 C104.146,129.420 105.584,128.844 105.584,128.844 C105.994,128.679 106.248,128.266 106.211,127.827 C106.211,127.827 105.961,124.855 105.961,124.855 C106.617,124.353 107.200,123.776 107.704,123.132 C107.704,123.132 110.689,123.453 110.689,123.453 C110.725,123.458 110.761,123.460 110.797,123.460 C111.197,123.460 111.562,123.222 111.722,122.849 C111.722,122.849 112.330,121.425 112.330,121.425 C112.503,121.019 112.392,120.549 112.054,120.264 C112.054,120.264 109.714,118.288 109.714,118.288 C109.812,117.505 109.815,116.719 109.724,115.940 C109.724,115.940 112.128,114.004 112.128,114.004 C112.472,113.727 112.595,113.258 112.430,112.848 C112.430,112.848 111.853,111.412 111.853,111.412 C111.699,111.029 111.328,110.781 110.920,110.781 C110.892,110.781 110.864,110.782 110.835,110.785 C110.835,110.785 107.718,111.048 107.718,111.048 C107.250,110.442 106.717,109.898 106.125,109.422 C106.125,109.422 106.461,106.309 106.461,106.309 C106.508,105.870 106.263,105.452 105.857,105.278 C105.857,105.278 104.433,104.668 104.433,104.668 C104.305,104.614 104.171,104.588 104.037,104.588 C103.747,104.588 103.464,104.713 103.269,104.944 C103.269,104.944 101.250,107.334 101.250,107.334 C100.830,107.279 100.406,107.252 99.983,107.252 C99.646,107.252 99.307,107.268 98.969,107.304 C98.969,107.304 97.010,104.871 97.010,104.871 C96.815,104.629 96.524,104.496 96.226,104.496 C96.226,104.496 96.226,104.496 96.226,104.496 z" fill="#758A9A" />
<path id="settings" d="M96.226,105.501 C96.226,105.501 98.540,108.374 98.540,108.374 C99.015,108.296 99.497,108.256 99.983,108.256 C100.537,108.256 101.094,108.308 101.651,108.417 C101.651,108.417 104.037,105.592 104.037,105.592 L105.461,106.201 C105.461,106.201 105.065,109.880 105.065,109.880 C105.931,110.492 106.659,111.246 107.238,112.096 C107.238,112.096 110.920,111.786 110.920,111.786 L111.497,113.222 C111.497,113.222 108.645,115.519 108.645,115.519 C108.831,116.553 108.832,117.625 108.634,118.691 C108.634,118.691 111.405,121.031 111.405,121.031 L110.797,122.455 C110.797,122.455 107.236,122.071 107.236,122.071 C106.602,122.996 105.808,123.767 104.911,124.374 C104.911,124.374 105.209,127.911 105.209,127.911 L103.771,128.488 C103.771,128.488 101.567,125.752 101.567,125.752 C101.037,125.850 100.496,125.900 99.952,125.900 C99.375,125.900 98.794,125.844 98.216,125.726 C98.216,125.726 95.961,128.397 95.961,128.397 L94.536,127.787 C94.536,127.787 94.911,124.316 94.911,124.316 C93.968,123.659 93.182,122.837 92.576,121.908 C92.576,121.908 89.077,122.203 89.077,122.203 L88.501,120.766 C88.501,120.766 91.262,118.543 91.262,118.543 C91.080,117.473 91.090,116.362 91.322,115.262 C91.322,115.262 88.591,112.957 88.591,112.957 L89.201,111.534 C89.201,111.534 92.800,111.922 92.800,111.922 C93.435,111.039 94.215,110.296 95.096,109.715 C95.096,109.715 94.788,106.077 94.788,106.077 L96.226,105.501 " fill="#F9F9F9" />
<path id="settings" d="M100.128,121.264 C102.419,121.264 104.276,119.409 104.276,117.121 C104.276,114.833 102.419,112.979 100.128,112.979 C97.838,112.979 95.980,114.833 95.980,117.121 C95.980,119.409 97.838,121.264 100.128,121.264 " fill="#758A9A" />
<path id="settings" d="M100.128,120.259 C98.395,120.259 96.985,118.852 96.985,117.121 C96.985,115.390 98.395,113.983 100.128,113.983 C101.861,113.983 103.271,115.390 103.271,117.121 C103.271,118.852 101.861,120.259 100.128,120.259 C100.128,120.259 100.128,120.259 100.128,120.259 z" fill="#F9F9F9" />
<path id="settings" d="M68.264,80.994 C68.073,80.994 67.881,81.030 67.696,81.104 C67.696,81.104 65.509,81.979 65.509,81.979 C64.885,82.229 64.498,82.856 64.555,83.526 C64.555,83.526 64.949,88.186 64.949,88.186 C63.990,88.907 63.125,89.738 62.365,90.672 C62.365,90.672 57.750,90.174 57.750,90.174 C57.695,90.167 57.639,90.165 57.585,90.165 C56.979,90.165 56.423,90.525 56.180,91.091 C56.180,91.091 55.253,93.256 55.253,93.256 C54.989,93.871 55.159,94.589 55.672,95.020 C55.672,95.020 59.150,97.957 59.150,97.957 C58.970,99.193 58.948,100.445 59.085,101.700 C59.085,101.700 55.563,104.537 55.563,104.537 C55.040,104.959 54.854,105.670 55.103,106.293 C55.103,106.293 55.979,108.475 55.979,108.475 C56.212,109.058 56.777,109.434 57.397,109.434 C57.440,109.434 57.483,109.433 57.526,109.430 C57.526,109.430 61.966,109.057 61.966,109.057 C62.740,110.097 63.639,111.022 64.652,111.823 C64.652,111.823 64.176,116.234 64.176,116.234 C64.104,116.900 64.476,117.536 65.094,117.801 C65.094,117.801 67.259,118.727 67.259,118.727 C67.453,118.809 67.658,118.849 67.860,118.849 C68.301,118.849 68.732,118.659 69.029,118.306 C69.029,118.306 71.894,114.916 71.894,114.916 C72.567,115.009 73.248,115.055 73.927,115.055 C74.531,115.055 75.138,115.017 75.742,114.944 C75.742,114.944 78.541,118.419 78.541,118.419 C78.839,118.788 79.280,118.989 79.734,118.989 C79.925,118.989 80.117,118.953 80.302,118.878 C80.302,118.878 82.487,118.002 82.487,118.002 C83.111,117.752 83.497,117.125 83.441,116.457 C83.441,116.457 83.061,111.940 83.061,111.940 C84.058,111.177 84.944,110.300 85.711,109.321 C85.711,109.321 90.247,109.809 90.247,109.809 C90.302,109.816 90.358,109.819 90.412,109.819 C91.019,109.819 91.575,109.458 91.818,108.891 C91.818,108.891 92.742,106.726 92.742,106.726 C93.005,106.109 92.836,105.395 92.323,104.961 C92.323,104.961 88.766,101.957 88.766,101.957 C88.914,100.768 88.919,99.574 88.780,98.389 C88.780,98.389 92.434,95.446 92.434,95.446 C92.957,95.026 93.144,94.313 92.894,93.690 C92.894,93.690 92.017,91.506 92.017,91.506 C91.782,90.924 91.218,90.548 90.599,90.548 C90.555,90.548 90.513,90.550 90.470,90.554 C90.470,90.554 85.731,90.953 85.731,90.953 C85.020,90.032 84.209,89.205 83.311,88.481 C83.311,88.481 83.820,83.750 83.820,83.750 C83.892,83.083 83.520,82.447 82.903,82.183 C82.903,82.183 80.739,81.257 80.739,81.257 C80.544,81.173 80.340,81.133 80.137,81.133 C79.696,81.133 79.265,81.324 78.968,81.676 C78.968,81.676 75.900,85.308 75.900,85.308 C75.262,85.225 74.617,85.183 73.974,85.183 C73.462,85.183 72.947,85.209 72.433,85.262 C72.433,85.262 69.456,81.565 69.456,81.565 C69.159,81.197 68.717,80.994 68.264,80.994 C68.264,80.994 68.264,80.994 68.264,80.994 z" fill="#758A9A" />
<path id="settings" d="M68.264,82.522 C68.264,82.522 71.782,86.889 71.782,86.889 C72.503,86.770 73.236,86.709 73.974,86.709 C74.816,86.709 75.664,86.788 76.509,86.954 C76.509,86.954 80.137,82.660 80.137,82.660 L82.301,83.587 C82.301,83.587 81.699,89.178 81.699,89.178 C83.015,90.108 84.122,91.255 85.001,92.546 C85.001,92.546 90.598,92.074 90.598,92.074 L91.475,94.258 C91.475,94.258 87.140,97.749 87.140,97.749 C87.424,99.321 87.425,100.951 87.124,102.571 C87.124,102.571 91.336,106.127 91.336,106.127 L90.411,108.292 C90.411,108.292 84.999,107.709 84.999,107.709 C84.035,109.114 82.828,110.287 81.465,111.208 C81.465,111.208 81.918,116.586 81.918,116.586 L79.733,117.463 C79.733,117.463 76.382,113.304 76.382,113.304 C75.576,113.452 74.755,113.529 73.927,113.529 C73.051,113.529 72.168,113.442 71.288,113.264 C71.288,113.264 67.861,117.323 67.861,117.323 L65.695,116.397 C65.695,116.397 66.265,111.121 66.265,111.121 C64.831,110.123 63.637,108.872 62.715,107.461 C62.715,107.461 57.398,107.908 57.398,107.908 L56.522,105.725 C56.522,105.725 60.718,102.346 60.718,102.346 C60.441,100.719 60.456,99.030 60.809,97.358 C60.809,97.358 56.659,93.855 56.659,93.855 L57.586,91.692 C57.586,91.692 63.056,92.281 63.056,92.281 C64.021,90.940 65.207,89.810 66.546,88.928 C66.546,88.928 66.078,83.397 66.078,83.397 L68.264,82.522 " fill="#F9F9F9" />
<path id="settings" d="M74.195,106.481 C77.677,106.481 80.500,103.662 80.500,100.185 C80.500,96.706 77.677,93.888 74.195,93.888 C70.713,93.888 67.890,96.706 67.890,100.185 C67.890,103.662 70.713,106.481 74.195,106.481 " fill="#008AE0" />
<path id="settings" d="M74.195,104.954 C71.561,104.954 69.418,102.815 69.418,100.185 C69.418,97.554 71.561,95.414 74.195,95.414 C76.829,95.414 78.971,97.554 78.971,100.185 C78.971,102.815 76.829,104.954 74.195,104.954 C74.195,104.954 74.195,104.954 74.195,104.954 z" fill="#F9F9F9" />
<path id="settings" d="M108.526,93.998 C108.461,93.998 108.395,94.010 108.332,94.035 C108.332,94.035 107.586,94.335 107.586,94.335 C107.373,94.420 107.241,94.634 107.260,94.864 C107.260,94.864 107.395,96.458 107.395,96.458 C107.068,96.705 106.773,96.989 106.513,97.308 C106.513,97.308 104.938,97.138 104.938,97.138 C104.919,97.136 104.900,97.135 104.882,97.135 C104.675,97.135 104.485,97.258 104.402,97.452 C104.402,97.452 104.086,98.192 104.086,98.192 C103.996,98.403 104.054,98.648 104.229,98.796 C104.229,98.796 105.416,99.801 105.416,99.801 C105.354,100.223 105.347,100.652 105.394,101.081 C105.394,101.081 104.192,102.052 104.192,102.052 C104.013,102.196 103.950,102.440 104.035,102.652 C104.035,102.652 104.334,103.399 104.334,103.399 C104.414,103.598 104.606,103.727 104.818,103.727 C104.832,103.727 104.847,103.727 104.862,103.725 C104.862,103.725 106.377,103.598 106.377,103.598 C106.641,103.954 106.948,104.270 107.294,104.544 C107.294,104.544 107.131,106.054 107.131,106.054 C107.106,106.281 107.233,106.499 107.444,106.589 C107.444,106.589 108.183,106.906 108.183,106.906 C108.249,106.934 108.319,106.948 108.388,106.948 C108.539,106.948 108.686,106.883 108.787,106.762 C108.787,106.762 109.765,105.602 109.765,105.602 C109.995,105.634 110.227,105.650 110.459,105.650 C110.665,105.650 110.872,105.637 111.078,105.612 C111.078,105.612 112.033,106.801 112.033,106.801 C112.135,106.927 112.286,106.996 112.440,106.996 C112.505,106.996 112.571,106.983 112.634,106.958 C112.634,106.958 113.380,106.658 113.380,106.658 C113.592,106.573 113.725,106.358 113.705,106.130 C113.705,106.130 113.575,104.584 113.575,104.584 C113.916,104.323 114.218,104.023 114.480,103.688 C114.480,103.688 116.028,103.855 116.028,103.855 C116.047,103.858 116.066,103.859 116.084,103.859 C116.291,103.859 116.481,103.735 116.564,103.541 C116.564,103.541 116.879,102.801 116.879,102.801 C116.969,102.590 116.911,102.345 116.736,102.197 C116.736,102.197 115.522,101.169 115.522,101.169 C115.573,100.762 115.575,100.354 115.527,99.948 C115.527,99.948 116.774,98.942 116.774,98.942 C116.953,98.798 117.016,98.554 116.931,98.341 C116.931,98.341 116.632,97.594 116.632,97.594 C116.552,97.394 116.359,97.266 116.148,97.266 C116.133,97.266 116.119,97.267 116.104,97.268 C116.104,97.268 114.487,97.404 114.487,97.404 C114.244,97.090 113.967,96.807 113.661,96.559 C113.661,96.559 113.835,94.940 113.835,94.940 C113.859,94.712 113.732,94.495 113.522,94.404 C113.522,94.404 112.783,94.087 112.783,94.087 C112.717,94.059 112.647,94.045 112.578,94.045 C112.427,94.045 112.280,94.111 112.179,94.231 C112.179,94.231 111.132,95.474 111.132,95.474 C110.914,95.445 110.694,95.431 110.474,95.431 C110.300,95.431 110.124,95.439 109.949,95.458 C109.949,95.458 108.933,94.193 108.933,94.193 C108.831,94.067 108.681,93.998 108.526,93.998 C108.526,93.998 108.526,93.998 108.526,93.998 z" fill="#758A9A" />
<path id="settings" d="M108.526,94.520 C108.526,94.520 109.727,96.014 109.727,96.014 C109.973,95.973 110.223,95.953 110.474,95.953 C110.762,95.953 111.051,95.980 111.340,96.036 C111.340,96.036 112.578,94.567 112.578,94.567 L113.316,94.885 C113.316,94.885 113.111,96.797 113.111,96.797 C113.560,97.116 113.938,97.508 114.238,97.950 C114.238,97.950 116.148,97.788 116.148,97.788 L116.447,98.535 C116.447,98.535 114.968,99.729 114.968,99.729 C115.064,100.267 115.065,100.825 114.962,101.379 C114.962,101.379 116.400,102.596 116.400,102.596 L116.084,103.336 C116.084,103.336 114.237,103.137 114.237,103.137 C113.908,103.618 113.496,104.019 113.031,104.334 C113.031,104.334 113.186,106.174 113.186,106.174 L112.440,106.474 C112.440,106.474 111.296,105.051 111.296,105.051 C111.022,105.102 110.741,105.128 110.459,105.128 C110.160,105.128 109.858,105.098 109.558,105.037 C109.558,105.037 108.389,106.426 108.389,106.426 L107.650,106.109 C107.650,106.109 107.844,104.304 107.844,104.304 C107.355,103.962 106.947,103.535 106.633,103.052 C106.633,103.052 104.818,103.205 104.818,103.205 L104.519,102.458 C104.519,102.458 105.951,101.302 105.951,101.302 C105.857,100.746 105.862,100.168 105.982,99.596 C105.982,99.596 104.566,98.398 104.566,98.398 L104.882,97.657 C104.882,97.657 106.749,97.859 106.749,97.859 C107.078,97.400 107.483,97.013 107.940,96.711 C107.940,96.711 107.780,94.820 107.780,94.820 L108.526,94.520 M110.550,102.717 C111.738,102.717 112.702,101.753 112.702,100.563 C112.702,99.373 111.738,98.409 110.550,98.409 C109.362,98.409 108.398,99.373 108.398,100.563 C108.398,101.753 109.362,102.717 110.550,102.717 M110.550,102.195 C109.651,102.195 108.920,101.463 108.920,100.563 C108.920,99.663 109.651,98.931 110.550,98.931 C111.449,98.931 112.180,99.663 112.180,100.563 C112.180,101.463 111.449,102.195 110.550,102.195 C110.550,102.195 110.550,102.195 110.550,102.195 z" fill="#F9F9F9" />
<path id="settings" d="M110.550,102.717 C111.738,102.717 112.702,101.753 112.702,100.563 C112.702,99.373 111.738,98.409 110.550,98.409 C109.362,98.409 108.398,99.373 108.398,100.563 C108.398,101.753 109.362,102.717 110.550,102.717 " fill="#758A9A" />
<path id="settings" d="M110.550,102.195 C109.651,102.195 108.920,101.463 108.920,100.563 C108.920,99.663 109.651,98.931 110.550,98.931 C111.449,98.931 112.180,99.663 112.180,100.563 C112.180,101.463 111.449,102.195 110.550,102.195 C110.550,102.195 110.550,102.195 110.550,102.195 z" fill="#F9F9F9" />
</g>
<g id="Address-bar">
<path id="Polygon-2" d="M6.000,57.000 L11.000,54.999 L11.000,59.000 L6.000,57.000 z" fill="#D2DDE7" />
<path id="Polygon-2" d="M22.000,57.000 L17.000,59.000 L17.000,54.999 L22.000,57.000 z" fill="#D2DDE7" />
<path id="Ellipse-4" d="M29.000,55.000 C30.105,55.000 31.000,55.895 31.000,57.000 C31.000,58.104 30.105,59.000 29.000,59.000 C27.895,59.000 27.000,58.104 27.000,57.000 C27.000,55.895 27.895,55.000 29.000,55.000 z" fill="#D2DDE7" />
<path id="Rectangle-19" d="M38.000,54.000 C38.000,54.000 154.000,54.000 154.000,54.000 C154.552,54.000 155.000,54.448 155.000,55.000 C155.000,55.000 155.000,59.000 155.000,59.000 C155.000,59.552 154.552,60.000 154.000,60.000 C154.000,60.000 38.000,60.000 38.000,60.000 C37.448,60.000 37.000,59.552 37.000,59.000 C37.000,59.000 37.000,55.000 37.000,55.000 C37.000,54.448 37.448,54.000 38.000,54.000 z" fill="#D2DDE7" />
<path id="Rectangle-20" d="M160.000,59.000 L160.000,58.000 L166.000,58.000 L166.000,59.000 L160.000,59.000 zM160.000,56.000 L166.000,56.000 L166.000,57.000 L160.000,57.000 L160.000,56.000 zM160.000,54.000 L166.000,54.000 L166.000,55.000 L160.000,55.000 L160.000,54.000 z" fill="#008AE0" />
</g>
</g>
</svg>
