<svg version="1.1" xmlns="http://www.w3.org/2000/svg" xmlns:xlink="http://www.w3.org/1999/xlink" width="32" height="32" viewBox="0 0 32 32">
<g id="ic-download-alt">
<path id="ic-download-alt" d="M25.699,26.008 C25.699,26.008 5.301,26.008 5.301,26.008 C4.584,26.008 4.000,25.414 4.000,24.684 C4.000,24.684 4.000,23.462 4.000,23.462 C4.000,23.180 4.224,22.953 4.501,22.953 C4.501,22.953 14.761,22.953 14.761,22.953 C15.038,22.953 15.261,23.180 15.261,23.462 C15.261,23.462 15.261,23.771 15.261,23.771 L16.805,23.705 C16.805,23.705 16.739,23.462 16.739,23.462 C16.739,23.180 16.963,22.953 17.239,22.953 C17.239,22.953 26.500,22.953 26.500,22.953 C26.776,22.953 27.000,23.180 27.000,23.462 C27.000,23.462 27.000,24.684 27.000,24.684 C27.000,25.414 26.416,26.008 25.699,26.008 zM26.000,23.971 C26.000,23.971 17.719,23.971 17.719,23.971 C17.628,24.401 17.253,24.723 16.805,24.723 C16.805,24.723 15.196,24.723 15.196,24.723 C14.748,24.723 14.372,24.401 14.281,23.971 C14.281,23.971 5.001,23.971 5.001,23.971 C5.001,23.971 5.001,24.684 5.001,24.684 C5.001,24.852 5.135,24.989 5.301,24.989 C5.301,24.989 25.699,24.989 25.699,24.989 C25.865,24.989 26.000,24.852 26.000,24.684 C26.000,24.684 26.000,23.971 26.000,23.971 zM24.524,21.905 C24.247,21.905 24.023,21.677 24.023,21.395 C24.023,21.395 24.023,9.985 24.023,9.985 C24.015,9.990 24.013,10.000 24.000,10.000 C24.000,10.000 18.000,10.000 18.000,10.000 C17.724,10.000 17.525,9.439 17.525,9.157 C17.525,8.876 17.724,9.000 18.000,9.000 C18.000,9.000 24.000,9.000 24.000,9.000 C24.673,9.000 25.024,9.206 25.024,9.891 C25.024,9.891 25.024,21.395 25.024,21.395 C25.024,21.677 24.800,21.905 24.524,21.905 zM18.842,14.996 C19.037,15.198 19.037,15.525 18.842,15.727 C18.842,15.727 15.837,18.849 15.837,18.849 C15.792,18.897 15.737,18.935 15.677,18.961 C15.616,18.987 15.551,19.001 15.485,19.001 C15.418,19.001 15.353,18.987 15.293,18.961 C15.232,18.935 15.178,18.897 15.132,18.849 C15.132,18.849 12.127,15.727 12.127,15.727 C11.932,15.525 11.932,15.198 12.127,14.996 C12.321,14.794 12.636,14.794 12.831,14.996 C12.831,14.996 14.987,17.236 14.987,17.236 C14.987,17.236 14.987,5.510 14.987,5.510 C14.987,5.224 15.210,4.993 15.485,4.993 C15.760,4.993 15.983,5.224 15.983,5.510 C15.983,5.510 15.983,17.235 15.983,17.235 C15.983,17.235 18.138,14.996 18.138,14.996 C18.333,14.794 18.648,14.794 18.842,14.996 zM13.000,10.000 C13.000,10.000 7.000,10.000 7.000,10.000 C6.987,10.000 6.985,9.990 6.977,9.985 C6.977,9.985 6.977,21.395 6.977,21.395 C6.977,21.677 6.753,21.905 6.477,21.905 C6.200,21.905 5.976,21.677 5.976,21.395 C5.976,21.395 5.976,9.891 5.976,9.891 C5.976,9.206 6.327,9.000 7.000,9.000 C7.000,9.000 13.000,9.000 13.000,9.000 C13.276,9.000 13.497,8.876 13.497,9.157 C13.497,9.439 13.276,10.000 13.000,10.000 z" fill="#FFFFFF" />
</g>
</svg>
