<svg version="1.1" xmlns="http://www.w3.org/2000/svg" xmlns:xlink="http://www.w3.org/1999/xlink" width="32" height="32" viewBox="0 0 32 32">
<g id="menu-ic-project">
<path id="menu-ic-project" d="M24.239,24.571 C24.202,24.815 23.988,24.996 23.737,24.996 C23.737,24.996 8.272,24.996 8.272,24.996 C8.021,24.996 7.807,24.815 7.772,24.571 C7.772,24.571 6.005,13.624 6.005,13.624 C5.983,13.482 6.026,13.337 6.123,13.229 C6.219,13.120 6.359,13.057 6.505,13.057 C6.505,13.057 11.166,13.057 11.166,13.057 C11.166,13.057 10.781,10.706 10.781,10.706 C10.739,10.446 10.911,10.198 11.174,10.143 C11.174,10.143 12.481,9.865 12.481,9.865 C12.302,9.534 12.119,9.250 12.008,9.149 C12.008,9.149 9.225,9.149 9.225,9.149 C9.062,9.149 8.930,9.269 8.930,9.416 C8.930,9.416 8.930,11.704 8.930,11.704 C8.930,11.978 8.704,12.200 8.424,12.200 C8.144,12.200 7.917,11.978 7.917,11.704 C7.917,11.704 7.917,9.416 7.917,9.416 C7.917,8.722 8.504,8.158 9.225,8.158 C9.225,8.158 12.095,8.158 12.095,8.158 C12.272,8.158 12.787,8.177 13.505,9.648 C13.505,9.648 21.972,7.005 21.972,7.005 C22.104,6.979 22.243,7.002 22.356,7.075 C22.470,7.148 22.548,7.261 22.576,7.392 C22.576,7.392 23.746,13.057 23.746,13.057 C23.746,13.057 25.503,13.057 25.503,13.057 C25.651,13.057 25.790,13.120 25.886,13.229 C25.982,13.337 26.026,13.482 26.005,13.624 C26.005,13.624 24.239,24.571 24.239,24.571 zM21.684,8.081 L11.857,11.012 L12.191,13.057 L22.712,13.057 L21.684,8.081 zM7.090,14.049 L8.710,24.004 L23.299,24.004 L24.919,14.049 L7.090,14.049 zM19.512,17.991 C19.512,17.991 12.611,17.991 12.611,17.991 C12.331,17.991 12.105,17.769 12.105,17.495 C12.105,17.221 12.331,16.999 12.611,16.999 C12.611,16.999 19.512,16.999 19.512,16.999 C19.792,16.999 20.019,17.221 20.019,17.495 C20.019,17.769 19.792,17.991 19.512,17.991 z" fill="#008AE0" />
</g>
</svg>
