<svg version="1.1" xmlns="http://www.w3.org/2000/svg" xmlns:xlink="http://www.w3.org/1999/xlink" width="32" height="32" viewBox="0 0 32 32">
<g id="menu-ic-corporat">
<path id="menu-ic-corporat" d="M25.883,20.965 C25.883,20.965 20.967,25.877 20.967,25.877 C20.889,25.956 20.782,26.000 20.671,26.000 C20.559,26.000 20.452,25.956 20.374,25.877 C20.374,25.877 16.324,21.829 16.324,21.829 C16.160,21.665 16.160,21.400 16.324,21.236 C16.488,21.072 16.754,21.072 16.918,21.236 C16.918,21.236 17.603,21.921 17.603,21.921 C17.603,21.921 18.403,21.121 18.403,21.121 C18.567,20.957 18.832,20.957 18.996,21.121 C19.160,21.285 19.160,21.551 18.996,21.715 C18.996,21.715 18.197,22.514 18.197,22.514 L19.137,23.454 C19.137,23.454 21.547,21.045 21.547,21.045 C21.711,20.881 21.977,20.881 22.141,21.045 C22.305,21.209 22.305,21.474 22.141,21.638 C22.141,21.638 19.731,24.047 19.731,24.047 L20.671,24.987 L24.992,20.669 C24.992,20.669 21.239,16.918 21.239,16.918 C21.075,16.754 21.075,16.488 21.239,16.325 C21.403,16.161 21.669,16.161 21.833,16.325 C21.833,16.325 25.883,20.372 25.883,20.372 C25.962,20.451 26.006,20.557 26.006,20.669 C26.006,20.780 25.962,20.887 25.883,20.965 zM13.109,23.473 C13.040,23.542 12.948,23.579 12.852,23.588 C12.437,23.772 11.228,24.247 7.448,25.704 C7.333,25.751 7.212,25.774 7.090,25.774 C6.831,25.774 6.572,25.667 6.369,25.463 C6.069,25.163 5.974,24.733 6.125,24.368 C7.607,20.598 8.086,19.404 8.267,18.999 C8.277,18.908 8.311,18.819 8.381,18.749 C8.381,18.749 20.335,6.803 20.335,6.803 C21.049,6.089 22.295,6.090 23.007,6.803 C23.007,6.803 24.914,8.709 24.914,8.709 C25.312,9.105 25.530,9.632 25.530,10.193 C25.530,10.752 25.312,11.280 24.914,11.676 C24.914,11.676 13.109,23.473 13.109,23.473 zM6.904,24.682 C6.878,24.744 6.916,24.822 6.964,24.870 C6.991,24.897 7.066,24.954 7.138,24.923 C7.604,24.744 8.125,24.543 8.655,24.337 C8.655,24.337 7.496,23.180 7.496,23.180 C7.289,23.705 7.086,24.221 6.904,24.682 zM7.832,22.329 C7.832,22.329 9.511,24.006 9.511,24.006 C10.525,23.612 11.478,23.240 12.053,23.012 C12.053,23.012 8.840,19.801 8.840,19.801 C8.608,20.372 8.231,21.321 7.832,22.329 zM24.321,9.302 C24.321,9.302 22.414,7.397 22.414,7.397 C22.017,7.000 21.326,7.000 20.929,7.397 C20.929,7.397 9.272,19.046 9.272,19.046 L11.040,20.813 C11.040,20.813 20.489,11.371 20.489,11.371 C20.653,11.207 20.918,11.207 21.082,11.371 C21.246,11.535 21.246,11.801 21.082,11.965 C21.082,11.965 11.634,21.406 11.634,21.406 L12.812,22.583 C12.812,22.583 24.321,11.083 24.321,11.083 C24.559,10.845 24.690,10.529 24.690,10.193 C24.690,9.856 24.559,9.540 24.321,9.302 zM14.951,10.635 C14.951,10.635 11.325,7.011 11.325,7.011 L7.004,11.329 L7.978,12.303 C7.978,12.303 10.388,9.894 10.388,9.894 C10.552,9.730 10.818,9.730 10.982,9.894 C11.146,10.058 11.146,10.324 10.982,10.488 C10.982,10.488 8.572,12.896 8.572,12.896 L9.450,13.773 C9.450,13.773 10.250,12.974 10.250,12.974 C10.414,12.810 10.680,12.810 10.844,12.974 C11.008,13.138 11.008,13.403 10.844,13.567 C10.844,13.567 10.044,14.367 10.044,14.367 C10.044,14.367 10.630,14.952 10.630,14.952 C10.794,15.116 10.794,15.382 10.630,15.546 C10.548,15.628 10.440,15.669 10.333,15.669 C10.225,15.669 10.118,15.628 10.036,15.546 C10.036,15.546 6.113,11.625 6.113,11.625 C5.949,11.461 5.949,11.196 6.113,11.032 C6.113,11.032 11.028,6.121 11.028,6.121 C11.107,6.042 11.213,5.998 11.325,5.998 C11.436,5.998 11.543,6.042 11.622,6.121 C11.622,6.121 15.545,10.042 15.545,10.042 C15.709,10.206 15.709,10.471 15.545,10.635 C15.381,10.799 15.115,10.799 14.951,10.635 z" fill="#00C2C5" />
</g>
</svg>
