<svg version="1.1" xmlns="http://www.w3.org/2000/svg" xmlns:xlink="http://www.w3.org/1999/xlink" width="32" height="32" viewBox="0 0 32 32">
<g id="menu-ic-mobile">
<path id="menu-ic-mobile" d="M20.000,26.000 C20.000,26.000 12.000,26.000 12.000,26.000 C10.895,26.000 10.000,25.105 10.000,24.000 C10.000,24.000 10.000,8.000 10.000,8.000 C10.000,6.895 10.895,6.000 12.000,6.000 C12.000,6.000 20.000,6.000 20.000,6.000 C21.105,6.000 22.000,6.895 22.000,8.000 C22.000,8.000 22.000,24.000 22.000,24.000 C22.000,25.105 21.105,26.000 20.000,26.000 zM21.000,8.000 C21.000,7.448 20.552,7.000 20.000,7.000 C20.000,7.000 12.000,7.000 12.000,7.000 C11.448,7.000 11.000,7.448 11.000,8.000 C11.000,8.000 11.000,24.000 11.000,24.000 C11.000,24.552 11.448,25.000 12.000,25.000 C12.000,25.000 20.000,25.000 20.000,25.000 C20.552,25.000 21.000,24.552 21.000,24.000 C21.000,24.000 21.000,8.000 21.000,8.000 zM16.000,24.000 C15.448,24.000 15.000,23.552 15.000,23.000 C15.000,22.448 15.448,22.000 16.000,22.000 C16.552,22.000 17.000,22.448 17.000,23.000 C17.000,23.552 16.552,24.000 16.000,24.000 z" fill="#FEB033" />
</g>
</svg>
