<svg version="1.1" xmlns="http://www.w3.org/2000/svg" xmlns:xlink="http://www.w3.org/1999/xlink" width="48" height="48" viewBox="0 0 48 48">
<g id="welcome-icon">
<path id="welcome-icon" d="M47.881,26.999 C47.870,27.275 47.705,27.626 47.496,27.808 C47.205,28.059 46.804,28.088 46.556,28.109 C46.556,28.109 45.530,46.904 45.530,46.904 C45.501,47.437 45.059,47.851 44.531,47.851 C44.513,47.851 44.496,47.851 44.476,47.849 C43.925,47.819 43.501,47.347 43.532,46.795 C43.532,46.795 44.604,27.165 44.604,27.165 C44.617,26.894 44.787,26.542 44.992,26.364 C45.274,26.120 45.604,26.061 45.911,26.060 C46.218,16.713 45.735,13.853 45.497,13.034 C45.315,13.028 45.090,13.019 44.887,13.010 C44.887,13.010 44.310,12.984 44.310,12.984 C44.248,12.976 44.162,13.059 44.103,13.171 C43.558,14.252 42.379,14.926 41.027,14.926 C39.676,14.926 38.498,14.252 37.950,13.170 C37.894,13.058 37.806,12.976 37.747,12.984 C37.270,13.037 29.026,14.391 26.252,14.860 C26.252,14.860 36.547,15.787 36.547,15.787 C37.061,15.837 37.454,16.267 37.454,16.784 C37.454,16.784 37.454,27.220 37.454,27.220 C37.454,27.220 38.523,46.795 38.523,46.795 C38.554,47.347 38.130,47.819 37.579,47.849 C36.992,47.934 36.557,47.456 36.525,46.904 C36.525,46.904 35.454,27.274 35.454,27.274 L35.452,17.696 C35.452,17.696 26.065,16.821 26.065,16.821 C25.070,16.727 24.319,15.925 24.282,14.914 C24.245,13.889 24.917,13.055 25.920,12.886 C27.679,12.589 37.192,11.014 37.616,10.986 C38.491,10.931 39.305,11.418 39.735,12.264 C40.229,13.241 41.832,13.235 42.319,12.266 C42.749,11.420 43.560,10.927 44.437,10.986 C44.437,10.986 44.971,11.010 44.971,11.010 C46.003,11.054 46.218,11.070 46.402,11.122 C46.542,11.162 46.673,11.233 46.783,11.328 C47.227,11.707 48.403,12.717 47.881,26.999 zM41.029,10.562 C38.798,10.562 37.319,7.761 37.319,5.908 C37.319,3.834 38.982,2.148 41.029,2.148 C43.073,2.148 44.736,3.834 44.736,5.908 C44.736,7.761 43.257,10.562 41.029,10.562 zM41.029,4.149 C40.086,4.149 39.320,4.938 39.320,5.908 C39.320,7.073 40.278,8.560 41.029,8.560 C41.777,8.560 42.735,7.073 42.735,5.908 C42.735,4.938 41.969,4.149 41.029,4.149 zM41.029,29.247 C41.582,29.247 42.029,29.696 42.029,30.248 C42.029,30.248 42.027,46.849 42.027,46.849 C42.027,47.403 41.580,47.851 41.027,47.851 C40.474,47.851 40.026,47.402 40.026,46.849 C40.026,46.849 40.028,30.248 40.028,30.248 C40.028,29.695 40.475,29.247 41.029,29.247 z" fill="#758A9A" />
<path id="welcome-icon" d="M26.237,25.645 C27.867,25.645 29.194,26.972 29.194,28.604 C29.194,30.236 27.867,31.561 26.237,31.561 C24.605,31.561 23.277,30.234 23.277,28.603 C23.277,27.898 23.536,27.258 23.949,26.749 C23.949,26.749 18.517,15.859 18.517,15.859 C18.332,15.895 18.141,15.917 17.945,15.918 C17.235,15.917 16.591,15.653 16.080,15.234 C16.080,15.234 10.773,19.176 10.773,19.176 C10.830,19.403 10.868,19.637 10.868,19.881 C10.868,21.511 9.541,22.837 7.911,22.839 C6.281,22.837 4.953,21.511 4.953,19.881 C4.953,18.250 6.279,16.923 7.909,16.923 C8.567,16.923 9.169,17.146 9.661,17.510 C9.661,17.510 15.043,13.513 15.043,13.513 C15.009,13.334 14.987,13.150 14.986,12.961 C14.986,11.328 16.313,10.001 17.945,10.001 C19.576,10.001 20.903,11.328 20.903,12.959 C20.903,13.664 20.644,14.303 20.231,14.813 C20.231,14.813 25.663,25.703 25.663,25.703 C25.849,25.666 26.040,25.645 26.237,25.645 zM7.911,18.924 C7.655,18.924 7.414,19.024 7.234,19.204 C7.055,19.385 6.955,19.625 6.955,19.881 C6.955,20.408 7.383,20.837 7.911,20.838 C8.438,20.837 8.867,20.408 8.867,19.881 C8.867,19.354 8.438,18.924 7.911,18.924 zM17.945,12.002 C17.418,12.002 16.988,12.432 16.988,12.959 C16.988,13.485 17.418,13.915 17.945,13.916 C18.473,13.915 18.901,13.486 18.901,12.959 C18.901,12.432 18.473,12.002 17.945,12.002 zM25.279,28.603 C25.279,29.131 25.709,29.560 26.237,29.560 C26.764,29.560 27.192,29.131 27.192,28.604 C27.192,28.077 26.764,27.647 26.237,27.647 C25.709,27.647 25.279,28.075 25.279,28.603 zM34.022,3.967 C34.022,3.967 1.998,3.967 1.998,3.967 L1.998,35.990 C1.998,35.990 32.020,35.990 32.020,35.990 C32.573,35.990 33.021,36.438 33.021,36.991 C33.021,37.544 32.573,37.992 32.020,37.992 C32.020,37.992 0.997,37.992 0.997,37.992 C0.444,37.992 -0.003,37.544 -0.003,36.991 C-0.003,36.991 -0.003,2.967 -0.003,2.967 C-0.003,2.414 0.444,1.966 0.997,1.966 C0.997,1.966 18.010,1.966 18.010,1.966 C18.010,1.966 18.010,1.003 18.010,1.003 C18.010,0.449 18.457,0.002 19.011,0.002 C19.564,0.002 20.011,0.449 20.011,1.003 C20.011,1.003 20.011,1.966 20.011,1.966 L30.019,1.966 C30.019,1.966 30.019,1.003 30.019,1.003 C30.019,0.449 30.466,0.002 31.019,0.002 C31.573,0.002 32.020,0.449 32.020,1.003 C32.020,1.003 32.020,1.966 32.020,1.966 C32.020,1.966 34.022,1.966 34.022,1.966 C34.575,1.966 35.022,2.414 35.022,2.967 C35.022,3.520 34.575,3.967 34.022,3.967 zM18.010,45.998 C18.010,45.998 24.014,45.998 24.014,45.998 C24.014,45.998 24.014,41.246 24.014,41.246 C24.014,40.693 24.462,40.245 25.015,40.245 C25.568,40.245 26.016,40.693 26.016,41.246 C26.016,41.246 26.016,45.998 26.016,45.998 C26.016,45.998 30.019,45.998 30.019,45.998 C30.572,45.998 31.019,46.445 31.019,46.998 C31.019,47.551 30.572,47.999 30.019,47.999 C30.019,47.999 18.010,47.999 18.010,47.999 C17.457,47.999 17.009,47.551 17.009,46.998 C17.009,46.445 17.457,45.998 18.010,45.998 z" fill="#00C2C5" />
</g>
</svg>
