<?xml version="1.0" encoding="utf-8"?>
<!-- Generator: Adobe Illustrator 21.0.2, SVG Export Plug-In . SVG Version: 6.00 Build 0)  -->
<!DOCTYPE svg PUBLIC "-//W3C//DTD SVG 1.1//EN" "http://www.w3.org/Graphics/SVG/1.1/DTD/svg11.dtd">
<svg version="1.1" id="Layer_1" xmlns="http://www.w3.org/2000/svg" xmlns:xlink="http://www.w3.org/1999/xlink" x="0px" y="0px"
	 viewBox="0 0 20 20" style="enable-background:new 0 0 20 20;" xml:space="preserve">
<style type="text/css">
	.st0{fill:#D2DDE7;}
	.st1{fill:#3BC0C3;}
</style>
<path class="st0" d="M11,11.9c-0.4-0.1-0.4-1.3-0.4-1.3s1.3-1.3,1.6-3c0.8,0,1.2-1.8,0.5-2.4c0-0.7,1-5.3-3.8-5.3
	C4.1,0,5,4.6,5.1,5.3C4.3,5.9,4.8,7.7,5.5,7.7c0.3,1.7,1.6,3,1.6,3s0,1.2-0.4,1.3C5.2,12.2,0,14.5,0,17h8.8v-3.3
	c0-1.9,5.6-0.5,3.6-1.4C11.6,12.1,11.4,12,11,11.9z"/>
<path class="st1" d="M19.7,13.7h-3.4v-3.4c0-0.2-0.1-0.3-0.3-0.3h-1.9c-0.2,0-0.3,0.1-0.3,0.3v3.4h-3.4c-0.2,0-0.3,0.1-0.3,0.3v1.9
	c0,0.2,0.1,0.3,0.3,0.3h3.4v3.4c0,0.2,0.1,0.3,0.3,0.3H16c0.2,0,0.3-0.1,0.3-0.3v-3.4h3.4c0.2,0,0.3-0.1,0.3-0.3V14
	C20,13.9,19.9,13.7,19.7,13.7z"/>
</svg>
