<?xml version="1.0" encoding="utf-8"?>
<!-- Generator: Adobe Illustrator 21.0.2, SVG Export Plug-In . SVG Version: 6.00 Build 0)  -->
<!DOCTYPE svg PUBLIC "-//W3C//DTD SVG 1.1//EN" "http://www.w3.org/Graphics/SVG/1.1/DTD/svg11.dtd">
<svg version="1.1" id="Layer_1" xmlns="http://www.w3.org/2000/svg" xmlns:xlink="http://www.w3.org/1999/xlink" x="0px" y="0px"
	 viewBox="0 0 20 20" style="enable-background:new 0 0 20 20;" xml:space="preserve">
<style type="text/css">
	.st0{fill:#00C2C5;}
	.st1{fill:#D2DDE7;}
</style>
<path class="st0" d="M14.4,14.8C14,14.7,14,13.7,14,13.7s1.1-1.1,1.3-2.5c0.6,0,1-1.5,0.4-2.1c0-0.6,0.8-4.4-3.2-4.4
	S9.3,8.6,9.3,9.1c-0.6,0.5-0.2,2.1,0.4,2.1c0.2,1.4,1.3,2.5,1.3,2.5s0,1-0.4,1.1C9.5,15,5,16.9,5,19h7.5H20
	C20,16.9,15.5,15,14.4,14.8z"/>
<path class="st1" d="M6.7,15.1c0.9-0.5,1.9-1,2.8-1.3c-0.3-0.4-0.6-1-0.9-1.7c-0.3-0.2-0.5-0.6-0.7-1s-0.2-0.9-0.2-1.4
	c0-0.3,0.1-0.6,0.3-0.9c-0.1-0.9-0.1-2.7,1-4c0.5-0.5,1-0.9,1.7-1.1C10.6,2.4,10,1,7.5,1c-4,0-3.2,3.9-3.2,4.4
	C3.7,5.9,4.1,7.5,4.7,7.5C4.9,8.9,6,10,6,10s0,1-0.4,1.1C4.5,11.2,0,13.2,0,15.3h6.4C6.5,15.2,6.6,15.2,6.7,15.1z"/>
</svg>
