<?xml version="1.0" encoding="utf-8"?>
<!-- Generator: Adobe Illustrator 21.0.2, SVG Export Plug-In . SVG Version: 6.00 Build 0)  -->
<!DOCTYPE svg PUBLIC "-//W3C//DTD SVG 1.1//EN" "http://www.w3.org/Graphics/SVG/1.1/DTD/svg11.dtd">
<svg version="1.1" id="Layer_1" xmlns="http://www.w3.org/2000/svg" xmlns:xlink="http://www.w3.org/1999/xlink" x="0px" y="0px"
	 viewBox="0 0 20 20" style="enable-background:new 0 0 20 20;" xml:space="preserve">
<style type="text/css">
	.st0{fill:#D2DDE7;}
	.st1{fill:#3BC0C3;}
</style>
<path class="st0" d="M0,3.1v13.8h20V3.1H0z M7.5,11.9V9.4h5v2.5H7.5z M12.5,13.1v2.5h-5v-2.5H12.5z M12.5,5.6v2.5h-5V5.6H12.5z
	 M6.3,5.6v2.5h-5V5.6H6.3z M1.3,9.4h5v2.5h-5C1.3,11.9,1.3,9.4,1.3,9.4z M13.8,9.4h5v2.5h-5C13.8,11.9,13.8,9.4,13.8,9.4z M13.8,8.1
	V5.6h5v2.5H13.8z M1.3,13.1h5v2.5h-5C1.3,15.6,1.3,13.1,1.3,13.1z M13.8,15.6v-2.5h5v2.5H13.8z"/>
<rect y="3.1" class="st1" width="20" height="2.5"/>
</svg>
