<?xml version="1.0" encoding="utf-8"?>
<!-- Generator: Adobe Illustrator 21.0.2, SVG Export Plug-In . SVG Version: 6.00 Build 0)  -->
<!DOCTYPE svg PUBLIC "-//W3C//DTD SVG 1.1//EN" "http://www.w3.org/Graphics/SVG/1.1/DTD/svg11.dtd">
<svg version="1.1" id="Layer_1" xmlns="http://www.w3.org/2000/svg" xmlns:xlink="http://www.w3.org/1999/xlink" x="0px" y="0px"
	 viewBox="0 0 20 20" style="enable-background:new 0 0 20 20;" xml:space="preserve">
<style type="text/css">
	.st0{fill:#D2DDE7;}
	.st1{fill:#3BC0C3;}
</style>
<polygon class="st0" points="17.4,0 18.7,11.2 17.2,11.3 16,1.4 3.6,1.4 2.4,11.3 1,11.2 2.3,0 "/>
<g>
	<rect x="4.8" y="2.5" class="st1" width="10" height="1.3"/>
	<rect x="4.8" y="5" class="st1" width="10" height="1.3"/>
	<rect x="4.8" y="7.5" class="st1" width="10" height="1.3"/>
	<rect x="4.8" y="10" class="st1" width="10" height="1.3"/>
</g>
<path class="st0" d="M19.2,12.5H0.5c-0.3,0-0.5,0.3-0.4,0.6l2.1,6.3C2.2,19.7,2.6,20,3,20h13.8c0.3,0,0.7-0.3,0.8-0.6l2.1-6.3
	C19.7,12.8,19.6,12.5,19.2,12.5z M12.3,15h-5v-1.3h5V15z"/>
</svg>
