<?xml version="1.0" encoding="utf-8"?>
<!-- Generator: Adobe Illustrator 21.0.2, SVG Export Plug-In . SVG Version: 6.00 Build 0)  -->
<!DOCTYPE svg PUBLIC "-//W3C//DTD SVG 1.1//EN" "http://www.w3.org/Graphics/SVG/1.1/DTD/svg11.dtd">
<svg version="1.1" id="Layer_1" xmlns="http://www.w3.org/2000/svg" xmlns:xlink="http://www.w3.org/1999/xlink" x="0px" y="0px"
	 viewBox="0 0 20 20" style="enable-background:new 0 0 20 20;" xml:space="preserve">
<style type="text/css">
	.st0{fill:#3BC0C3;}
	.st1{fill:#D2DDE7;}
</style>
<polygon class="st0" points="8.5,15.5 4.5,10.9 5.6,9.7 8.5,12 13.9,7.2 15,8.4 "/>
<path class="st1" d="M16,2.5L16,2.5v15l0,0H3.5l0,0v-15l0,0H1v15C1,18.9,2.1,20,3.5,20H16c1.4,0,2.5-1.1,2.5-2.5v-15H16z"/>
<path class="st1" d="M12.3,2.5V1.2C12.3,0.6,11.7,0,11,0H8.5C7.8,0,7.3,0.6,7.3,1.2v1.2H4.8V5h10V2.5H12.3z M11,2.5H8.5V1.2H11V2.5z
	"/>
</svg>
