<svg version="1.1" xmlns="http://www.w3.org/2000/svg" xmlns:xlink="http://www.w3.org/1999/xlink" width="24" height="24" viewBox="0 0 24 24">
<g id="menu-search">
<path id="menu-search" d="M20.004,18.846 C20.004,19.155 19.884,19.446 19.665,19.664 C19.439,19.889 19.143,20.002 18.847,20.002 C18.551,20.002 18.255,19.889 18.029,19.664 C18.029,19.664 13.852,15.487 13.852,15.487 C12.840,16.183 11.616,16.592 10.297,16.592 C6.826,16.592 4.001,13.768 4.001,10.296 C4.001,6.824 6.826,3.999 10.297,3.999 C13.769,3.999 16.593,6.824 16.593,10.296 C16.593,11.615 16.184,12.839 15.488,13.851 C15.488,13.851 19.665,18.028 19.665,18.028 C19.884,18.246 20.004,18.537 20.004,18.846 zM15.911,10.296 C15.911,7.200 13.393,4.682 10.297,4.682 C7.202,4.682 4.683,7.200 4.683,10.296 C4.683,13.391 7.202,15.909 10.297,15.909 C13.393,15.909 15.911,13.391 15.911,10.296 zM19.182,18.510 C19.182,18.510 15.066,14.394 15.066,14.394 C14.860,14.634 14.636,14.859 14.396,15.065 C14.396,15.065 18.512,19.181 18.512,19.181 C18.697,19.365 18.997,19.366 19.182,19.181 C19.272,19.092 19.321,18.973 19.321,18.846 C19.321,18.719 19.272,18.600 19.182,18.510 zM10.673,6.538 C9.566,6.499 8.523,6.911 7.743,7.691 C6.962,8.472 6.553,9.512 6.590,10.622 C6.596,10.810 6.448,10.968 6.260,10.974 C6.256,10.975 6.252,10.975 6.248,10.975 C6.065,10.975 5.914,10.829 5.908,10.645 C5.864,9.344 6.345,8.124 7.260,7.209 C8.175,6.294 9.397,5.812 10.696,5.856 C10.884,5.862 11.032,6.019 11.026,6.208 C11.020,6.396 10.864,6.559 10.673,6.538 z" fill="#758A9A" />
</g>
</svg>
