<svg version="1.1" xmlns="http://www.w3.org/2000/svg" xmlns:xlink="http://www.w3.org/1999/xlink" width="32" height="32" viewBox="0 0 32 32">
<g id="sample-slide-sid">
<path id="Shape-813" d="M26.497,15.898 C26.399,16.017 26.259,16.078 26.119,16.078 C26.007,16.078 25.895,16.040 25.802,15.961 C25.594,15.782 25.567,15.465 25.741,15.251 C26.568,14.240 27.024,12.958 27.024,11.640 C27.024,8.537 24.553,6.013 21.518,6.013 C19.716,6.013 17.991,6.886 16.902,8.348 C16.810,8.472 16.664,8.546 16.510,8.546 C16.356,8.546 16.211,8.472 16.118,8.348 C15.032,6.885 13.307,6.013 11.504,6.013 C8.468,6.013 5.998,8.537 5.998,11.640 C5.998,12.958 6.454,14.240 7.281,15.251 C7.455,15.465 7.427,15.782 7.220,15.961 C7.010,16.139 6.701,16.112 6.525,15.898 C5.550,14.706 5.013,13.193 5.013,11.640 C5.013,7.982 7.925,5.005 11.504,5.005 C13.407,5.005 15.237,5.837 16.512,7.258 C17.785,5.837 19.615,5.005 21.518,5.005 C25.097,5.005 28.009,7.982 28.009,11.640 C28.009,13.193 27.472,14.706 26.497,15.898 zM10.624,19.278 C10.624,19.278 16.022,25.802 16.022,25.802 C16.117,25.918 16.252,25.982 16.400,25.984 C16.401,25.984 16.403,25.984 16.404,25.984 C16.549,25.984 16.686,25.920 16.782,25.808 C16.782,25.808 22.327,19.273 22.327,19.273 C22.507,19.065 22.816,19.041 23.022,19.223 C23.227,19.406 23.249,19.723 23.071,19.934 C23.071,19.934 17.525,26.469 17.525,26.469 C17.243,26.800 16.835,26.991 16.404,26.991 C16.400,26.991 16.397,26.990 16.393,26.990 C15.959,26.987 15.549,26.791 15.270,26.453 C15.270,26.453 9.872,19.929 9.872,19.929 C9.696,19.717 9.722,19.399 9.930,19.219 C10.136,19.041 10.448,19.068 10.624,19.278 z" fill="#758A9A" />
<path id="Shape-813" d="M27.348,18.037 C27.348,18.037 19.564,18.037 19.564,18.037 C19.369,18.037 19.193,17.920 19.114,17.738 C19.114,17.738 18.430,16.165 18.430,16.165 C18.430,16.165 17.278,21.930 17.278,21.930 C17.231,22.161 17.034,22.329 16.802,22.332 C16.800,22.332 16.797,22.332 16.795,22.332 C16.566,22.332 16.367,22.171 16.315,21.942 C16.315,21.942 14.323,13.180 14.323,13.180 C14.323,13.180 13.166,17.662 13.166,17.662 C13.109,17.882 12.913,18.037 12.690,18.037 C12.690,18.037 5.677,18.037 5.677,18.037 C5.404,18.037 5.184,17.812 5.184,17.533 C5.184,17.255 5.404,17.029 5.677,17.029 C5.677,17.029 12.311,17.029 12.311,17.029 C12.311,17.029 13.877,10.961 13.877,10.961 C13.933,10.739 14.130,10.586 14.353,10.586 C14.355,10.586 14.357,10.586 14.361,10.586 C14.587,10.590 14.781,10.750 14.833,10.976 C14.833,10.976 16.764,19.469 16.764,19.469 C16.764,19.469 17.773,14.422 17.773,14.422 C17.816,14.208 17.989,14.046 18.203,14.023 C18.412,13.997 18.619,14.119 18.706,14.319 C18.706,14.319 19.884,17.029 19.884,17.029 C19.884,17.029 27.348,17.029 27.348,17.029 C27.620,17.029 27.841,17.255 27.841,17.533 C27.841,17.812 27.620,18.037 27.348,18.037 zM10.624,19.278 C10.624,19.278 16.022,25.802 16.022,25.802 C16.117,25.918 16.252,25.982 16.400,25.984 C16.401,25.984 16.403,25.984 16.404,25.984 C16.549,25.984 16.686,25.920 16.782,25.808 C16.782,25.808 22.327,19.273 22.327,19.273 C22.507,19.065 22.816,19.041 23.022,19.223 C23.227,19.406 23.249,19.723 23.071,19.934 C23.071,19.934 17.525,26.469 17.525,26.469 C17.243,26.800 16.835,26.991 16.404,26.991 C16.400,26.991 16.397,26.990 16.393,26.990 C15.959,26.987 15.549,26.791 15.270,26.453 C15.270,26.453 9.872,19.929 9.872,19.929 C9.696,19.717 9.722,19.399 9.930,19.219 C10.136,19.041 10.448,19.068 10.624,19.278 z" fill="#00C2C5" />
</g>
</svg>
