<svg version="1.1" xmlns="http://www.w3.org/2000/svg" xmlns:xlink="http://www.w3.org/1999/xlink" width="180" height="180" viewBox="0 0 180 180">
<g id="sample-avatar">
<path id="Shape-699" d="M40.212,155.509 C69.015,143.205 74.410,137.246 75.719,133.053 C75.831,132.687 75.890,132.305 75.890,131.921 C75.890,131.921 75.890,124.366 75.890,124.366 C75.890,123.369 75.504,122.416 74.805,121.708 C70.193,116.990 66.619,110.439 64.473,102.752 C64.235,101.911 63.715,101.175 63.001,100.670 C61.130,99.351 59.874,97.271 59.555,94.958 C59.235,92.616 59.889,90.303 61.404,88.440 C61.955,87.759 62.259,86.912 62.259,86.039 C62.259,86.039 62.259,69.121 62.259,69.121 C62.259,52.607 72.257,43.516 90.413,43.516 C108.828,43.516 118.559,52.369 118.559,69.121 C118.559,69.121 118.559,86.032 118.559,86.032 C118.559,86.904 118.863,87.752 119.413,88.431 C120.936,90.303 121.590,92.624 121.263,94.966 C120.943,97.279 119.688,99.354 117.816,100.670 C117.095,101.175 116.576,101.911 116.338,102.757 C114.191,110.445 110.618,116.998 106.012,121.708 C105.314,122.416 104.928,123.369 104.928,124.366 C104.928,124.366 104.928,131.921 104.928,131.921 C104.928,132.305 104.988,132.687 105.099,133.053 C105.885,135.576 107.713,141.313 140.021,155.310 C126.130,165.978 108.810,172.394 89.981,172.394 C71.272,172.394 54.058,166.054 40.212,155.509 z" fill="#FFFFFF" />
<path id="Shape-699" d="M179.985,90.002 C179.985,40.375 139.611,0.004 89.981,0.004 C40.360,0.004 -0.014,40.375 -0.014,90.002 C-0.014,139.628 40.360,180.001 89.981,180.001 C112.718,180.001 133.451,171.460 149.310,157.506 C149.446,157.424 149.530,157.292 149.656,157.191 C168.211,140.694 179.985,116.726 179.985,90.002 zM40.212,155.509 C69.015,143.205 74.410,137.246 75.719,133.053 C75.831,132.687 75.890,132.305 75.890,131.921 C75.890,131.921 75.890,124.366 75.890,124.366 C75.890,123.369 75.504,122.416 74.805,121.708 C70.193,116.990 66.619,110.439 64.473,102.752 C64.235,101.911 63.715,101.175 63.001,100.670 C61.130,99.351 59.874,97.271 59.555,94.958 C59.235,92.616 59.889,90.303 61.404,88.440 C61.955,87.759 62.259,86.912 62.259,86.039 C62.259,86.039 62.259,69.121 62.259,69.121 C62.259,52.607 72.257,43.516 90.413,43.516 C108.828,43.516 118.559,52.369 118.559,69.121 C118.559,69.121 118.559,86.032 118.559,86.032 C118.559,86.904 118.863,87.752 119.413,88.431 C120.936,90.303 121.590,92.624 121.263,94.966 C120.943,97.279 119.688,99.354 117.816,100.670 C117.095,101.175 116.576,101.911 116.338,102.757 C114.191,110.445 110.618,116.998 106.012,121.708 C105.314,122.416 104.928,123.369 104.928,124.366 C104.928,124.366 104.928,131.921 104.928,131.921 C104.928,132.305 104.988,132.687 105.099,133.053 C105.885,135.576 107.713,141.313 140.021,155.310 C126.130,165.978 108.810,172.394 89.981,172.394 C71.272,172.394 54.058,166.054 40.212,155.509 z" fill="#008AE0" />
</g>
</svg>
