<svg version="1.1" xmlns="http://www.w3.org/2000/svg" xmlns:xlink="http://www.w3.org/1999/xlink" width="32" height="32" viewBox="0 0 32 32">
<g id="sample-slide-sid">
<path id="Shape-479" d="M22.773,20.766 C22.688,20.821 22.589,20.849 22.490,20.849 C22.417,20.849 22.345,20.834 22.276,20.804 C22.276,20.804 19.549,19.592 19.549,19.592 C19.290,19.477 19.175,19.178 19.293,18.924 C19.412,18.670 19.718,18.558 19.977,18.673 C19.977,18.673 21.888,19.522 21.888,19.522 C21.553,17.694 20.329,16.037 19.762,15.349 C19.584,15.132 19.619,14.814 19.841,14.639 C20.060,14.464 20.387,14.497 20.566,14.716 C21.459,15.799 22.962,17.969 23.006,20.335 C23.009,20.508 22.922,20.671 22.773,20.766 zM15.494,28.003 C13.767,28.002 13.291,22.569 13.291,22.515 C13.291,21.774 13.639,21.204 14.271,20.909 C14.407,20.847 14.559,20.845 14.696,20.902 C14.832,20.959 14.937,21.070 14.983,21.208 C15.211,21.891 15.399,22.177 15.494,22.290 C15.590,22.177 15.777,21.891 16.005,21.209 C16.051,21.071 16.156,20.959 16.292,20.902 C16.429,20.845 16.582,20.848 16.717,20.909 C17.349,21.204 17.698,21.774 17.698,22.515 C17.698,22.570 17.221,28.002 15.494,28.003 zM16.656,22.352 C15.988,23.724 15.007,23.726 14.333,22.352 C14.326,22.401 14.323,22.455 14.323,22.515 C14.323,23.589 14.992,26.441 15.494,26.951 C15.996,26.443 16.666,23.591 16.666,22.515 C16.666,22.456 16.663,22.401 16.656,22.352 zM15.495,12.632 C15.494,12.632 15.494,12.632 15.494,12.632 C14.460,12.632 13.619,11.809 13.619,10.798 C13.619,9.786 14.460,8.963 15.494,8.963 C16.529,8.963 17.371,9.786 17.371,10.798 C17.371,11.808 16.529,12.631 15.495,12.632 zM15.495,9.973 C15.270,9.973 15.058,10.059 14.899,10.215 C14.739,10.371 14.652,10.578 14.652,10.798 C14.652,11.252 15.030,11.622 15.494,11.622 C15.959,11.621 16.338,11.252 16.338,10.798 C16.338,10.343 15.960,9.973 15.495,9.973 zM11.462,19.592 C11.462,19.592 8.736,20.804 8.736,20.804 C8.667,20.834 8.595,20.849 8.522,20.849 C8.423,20.849 8.324,20.821 8.239,20.766 C8.091,20.671 8.003,20.508 8.006,20.335 C8.049,18.009 9.516,15.862 10.387,14.789 C10.565,14.570 10.889,14.533 11.112,14.707 C11.336,14.880 11.373,15.197 11.196,15.416 C10.644,16.096 9.456,17.728 9.125,19.522 C9.125,19.522 11.034,18.673 11.034,18.673 C11.296,18.558 11.600,18.670 11.718,18.924 C11.836,19.178 11.721,19.477 11.462,19.592 z" fill="#00C2C5" />
<path id="Shape-479" d="M15.494,4.005 C14.423,4.005 13.393,4.766 12.596,6.148 C11.967,7.238 11.561,8.593 11.565,9.654 C11.565,9.654 12.633,19.289 12.633,19.289 C12.666,19.731 13.045,20.076 13.496,20.076 C13.496,20.076 17.493,20.076 17.493,20.076 C17.944,20.076 18.324,19.730 18.355,19.307 C18.355,19.307 19.429,9.577 19.429,9.577 C19.429,7.664 17.897,4.005 15.494,4.005 zM17.343,19.067 L13.646,19.067 C13.646,19.067 12.594,9.599 12.594,9.599 C12.594,8.767 12.956,7.579 13.495,6.644 C14.092,5.609 14.821,5.015 15.494,5.015 C17.083,5.015 18.397,8.036 18.400,9.523 C18.400,9.523 17.343,19.067 17.343,19.067 z" fill="#9AA8C4" />
</g>
</svg>
