<svg version="1.1" xmlns="http://www.w3.org/2000/svg" xmlns:xlink="http://www.w3.org/1999/xlink" width="32" height="32" viewBox="0 0 32 32">
<g id="sample-slide-sid">
<path id="sample-slide-sid" d="M22.471,26.015 C21.121,26.015 20.023,24.912 20.023,23.556 C20.023,22.201 21.121,21.099 22.471,21.099 C23.820,21.099 24.918,22.201 24.918,23.556 C24.918,24.912 23.820,26.015 22.471,26.015 zM22.471,22.103 C21.672,22.103 21.023,22.755 21.023,23.556 C21.023,24.358 21.672,25.011 22.471,25.011 C23.269,25.011 23.918,24.358 23.918,23.556 C23.918,22.755 23.269,22.103 22.471,22.103 zM22.474,24.058 C22.344,24.058 22.214,24.007 22.124,23.917 C22.023,23.817 21.974,23.687 21.974,23.556 C21.974,23.425 22.023,23.294 22.113,23.204 C22.313,23.014 22.634,23.014 22.823,23.194 C22.913,23.294 22.974,23.425 22.974,23.556 C22.974,23.687 22.913,23.817 22.823,23.907 C22.724,24.007 22.594,24.058 22.474,24.058 zM16.901,10.131 C16.901,10.131 8.358,10.131 8.358,10.131 C8.081,10.131 7.858,9.907 7.858,9.629 C7.858,8.124 9.044,6.988 10.618,6.988 C10.618,6.988 14.642,6.988 14.642,6.988 C16.215,6.988 17.401,8.124 17.401,9.629 C17.401,9.907 17.178,10.131 16.901,10.131 zM14.642,7.992 C14.642,7.992 10.618,7.992 10.618,7.992 C9.805,7.992 9.153,8.455 8.936,9.127 C8.936,9.127 16.323,9.127 16.323,9.127 C16.107,8.455 15.455,7.992 14.642,7.992 zM11.483,21.099 C12.832,21.099 13.931,22.201 13.931,23.556 C13.931,24.912 12.832,26.015 11.483,26.015 C10.133,26.015 9.034,24.912 9.034,23.556 C9.034,22.201 10.133,21.099 11.483,21.099 zM11.483,25.011 C12.281,25.011 12.931,24.358 12.931,23.556 C12.931,22.755 12.281,22.103 11.483,22.103 C10.684,22.103 10.034,22.755 10.034,23.556 C10.034,24.358 10.684,25.011 11.483,25.011 zM11.834,23.194 C11.934,23.294 11.983,23.425 11.983,23.556 C11.983,23.687 11.934,23.817 11.834,23.907 C11.743,24.007 11.613,24.058 11.483,24.058 C11.354,24.058 11.224,24.007 11.134,23.917 C11.033,23.817 10.983,23.687 10.983,23.556 C10.983,23.425 11.033,23.294 11.124,23.204 C11.323,23.014 11.644,23.014 11.834,23.194 z" fill="#00C2C5" />
<path id="sample-slide-sid" d="M26.455,22.972 C26.179,22.972 25.955,22.747 25.955,22.470 C25.955,22.192 26.179,21.968 26.455,21.968 C26.695,21.968 27.000,21.736 27.000,21.595 C27.000,21.595 27.000,19.277 27.000,19.277 C27.000,18.696 26.509,18.141 25.906,18.043 C25.906,18.043 20.948,17.029 20.948,17.029 L7.000,17.029 L7.000,20.544 C7.000,20.544 7.000,21.372 7.000,21.372 C7.000,21.513 7.102,21.659 7.241,21.720 C7.241,21.720 7.955,22.003 7.955,22.003 C8.212,22.105 8.338,22.396 8.236,22.654 C8.159,22.851 7.971,22.972 7.772,22.972 C7.710,22.972 7.649,22.961 7.588,22.936 C7.588,22.936 6.858,22.647 6.858,22.647 C6.339,22.422 6.000,21.912 6.000,21.372 C6.000,21.372 6.000,21.046 6.000,21.046 C6.000,21.046 4.500,21.046 4.500,21.046 C4.224,21.046 4.000,20.821 4.000,20.544 C4.000,20.544 4.000,15.523 4.000,15.523 C4.000,15.246 4.224,15.021 4.500,15.021 C4.500,15.021 6.000,15.021 6.000,15.021 C6.000,15.021 6.000,12.357 6.000,12.357 C6.000,11.625 6.637,11.005 7.390,11.005 C7.390,11.005 18.227,11.005 18.227,11.005 C18.766,11.005 19.266,11.331 19.472,11.818 C19.472,11.818 21.353,16.087 21.353,16.087 C21.353,16.087 26.086,17.055 26.086,17.055 C27.150,17.230 28.000,18.206 28.000,19.277 C28.000,19.277 28.000,21.595 28.000,21.595 C28.000,22.371 27.170,22.972 26.455,22.972 zM6.000,16.025 L5.000,16.025 L5.000,20.042 L6.000,20.042 L6.000,16.025 zM10.000,12.009 C10.000,12.009 7.390,12.009 7.390,12.009 C7.206,12.009 7.000,12.158 7.000,12.357 C7.000,12.357 7.000,15.523 7.000,15.523 L7.000,16.025 L10.000,16.025 L10.000,12.009 zM14.000,12.009 L11.000,12.009 L11.000,16.025 L14.000,16.025 L14.000,12.009 zM18.555,12.217 C18.501,12.091 18.368,12.009 18.227,12.009 C18.227,12.009 15.000,12.009 15.000,12.009 L15.000,16.025 L20.233,16.025 C20.233,16.025 18.555,12.217 18.555,12.217 zM15.524,23.054 C15.524,23.054 18.477,23.054 18.477,23.054 C18.753,23.054 18.977,23.279 18.977,23.556 C18.977,23.834 18.753,24.058 18.477,24.058 C18.477,24.058 15.524,24.058 15.524,24.058 C15.248,24.058 15.024,23.834 15.024,23.556 C15.024,23.279 15.248,23.054 15.524,23.054 z" fill="#9AA8C4" />
</g>
</svg>
