<svg version="1.1" xmlns="http://www.w3.org/2000/svg" xmlns:xlink="http://www.w3.org/1999/xlink" width="32" height="32" viewBox="0 0 32 32">
<g id="sample-slide-sid">
<path id="Shape-530" d="M15.997,4.003 C11.034,4.003 6.997,8.029 6.997,12.977 C6.997,17.146 9.897,20.769 13.939,21.711 C13.939,21.711 15.505,27.630 15.505,27.630 C15.563,27.852 15.766,28.007 15.997,28.007 C16.227,28.007 16.430,27.852 16.489,27.630 C16.489,27.630 18.054,21.711 18.054,21.711 C22.096,20.769 24.996,17.146 24.996,12.977 C24.996,8.029 20.959,4.003 15.997,4.003 zM17.543,20.783 C17.352,20.820 17.199,20.963 17.149,21.151 C17.149,21.151 15.997,25.510 15.997,25.510 C15.997,25.510 14.844,21.151 14.844,21.151 C14.794,20.963 14.641,20.820 14.450,20.783 C10.721,20.052 8.015,16.769 8.015,12.977 C8.015,8.589 11.596,5.018 15.997,5.018 C20.398,5.018 23.979,8.589 23.979,12.977 C23.979,16.769 21.272,20.052 17.543,20.783 z" fill="#9AA8C4" />
<path id="Shape-530" d="M18.824,10.836 C18.498,10.833 18.133,10.829 17.731,10.823 C17.731,10.823 17.427,9.946 17.427,9.946 C16.785,8.078 16.591,7.515 15.995,7.515 C15.403,7.515 15.223,8.045 14.627,9.802 C14.523,10.106 14.407,10.447 14.276,10.822 C14.276,10.822 13.372,10.836 13.372,10.836 C11.290,10.864 10.730,10.871 10.547,11.441 C10.367,12.002 10.822,12.337 12.333,13.441 C12.595,13.631 12.885,13.844 13.205,14.081 C13.087,14.458 12.978,14.799 12.881,15.104 C12.360,16.737 12.203,17.229 12.487,17.618 C12.608,17.782 12.800,17.877 13.014,17.877 C13.433,17.877 13.927,17.533 15.246,16.614 C15.246,16.614 16.004,16.089 16.004,16.089 C16.004,16.089 16.761,16.613 16.761,16.613 C18.080,17.533 18.573,17.877 18.992,17.877 C19.206,17.877 19.399,17.782 19.519,17.618 C19.804,17.229 19.647,16.737 19.126,15.106 C19.029,14.801 18.920,14.459 18.802,14.082 C18.802,14.082 19.517,13.552 19.517,13.552 C21.187,12.320 21.636,11.989 21.451,11.420 C21.268,10.858 20.702,10.853 18.824,10.836 zM18.912,12.736 C18.912,12.736 17.905,13.483 17.905,13.483 C17.733,13.611 17.660,13.833 17.723,14.037 C17.883,14.558 18.029,15.016 18.156,15.414 C18.294,15.844 18.427,16.261 18.518,16.584 C18.200,16.379 17.779,16.085 17.344,15.781 C17.344,15.781 16.292,15.052 16.292,15.052 C16.119,14.933 15.888,14.933 15.715,15.052 C15.715,15.052 14.663,15.781 14.663,15.781 C14.224,16.088 13.799,16.384 13.486,16.589 C13.579,16.266 13.712,15.848 13.850,15.416 C13.976,15.017 14.123,14.558 14.283,14.037 C14.346,13.832 14.273,13.611 14.101,13.482 C13.663,13.155 13.273,12.870 12.934,12.622 C12.567,12.353 12.210,12.093 11.944,11.884 C12.327,11.865 12.848,11.858 13.386,11.851 C13.386,11.851 14.650,11.831 14.650,11.831 C14.863,11.827 15.049,11.691 15.120,11.492 C15.301,10.978 15.456,10.522 15.590,10.127 C15.737,9.696 15.879,9.277 15.999,8.962 C16.132,9.309 16.295,9.785 16.464,10.275 C16.464,10.275 16.886,11.492 16.886,11.492 C16.957,11.691 17.144,11.827 17.356,11.831 C17.907,11.842 18.393,11.847 18.815,11.851 C19.274,11.855 19.718,11.859 20.059,11.873 C19.758,12.111 19.342,12.418 18.912,12.736 z" fill="#00C2C5" />
</g>
</svg>
