<svg version="1.1" id="toggler-icon" xmlns="http://www.w3.org/2000/svg" xmlns:xlink="http://www.w3.org/1999/xlink" x="0px"
	 y="0px" viewBox="0 0 20 20" enable-background="new 0 0 20 20" xml:space="preserve">
  <path id="circle" fill-rule="evenodd" clip-rule="evenodd" fill="#3BC0C3" d="M10,0c5.5,0,10,4.5,10,10c0,5.5-4.5,10-10,10
    C4.5,20,0,15.5,0,10C0,4.5,4.5,0,10,0z"/>
  <path id="left" fill="#FFFFFF" d="M6.5,10.5l1.4,1.6c0.2,0.2,0.2,0.5,0,0.7c-0.2,0.2-0.4,0.2-0.6,0l-2.2-2.5C5,10.1,5,9.8,5.1,9.6
    l2.2-2.5c0.2-0.2,0.4-0.2,0.6,0C8,7.2,8,7.4,8,7.5s0,0.3-0.1,0.4L6.5,9.5V10.5z"/>
  <path id="right" fill="#FFFFFF" d="M13.6,9.5l-1.4-1.6c-0.2-0.2-0.2-0.5,0-0.7c0.2-0.2,0.4-0.2,0.6,0l2.2,2.5c0.2,0.2,0.2,0.5,0,0.7
    l-2.2,2.5c-0.2,0.2-0.4,0.2-0.6,0c-0.1-0.1-0.1-0.2-0.1-0.4c0-0.1,0-0.3,0.1-0.4l1.4-1.6V9.5z"/>
</svg>
