<svg version="1.1" xmlns="http://www.w3.org/2000/svg" xmlns:xlink="http://www.w3.org/1999/xlink" width="640" height="400" viewBox="0 0 640 400">
<g id="skeleton-content">
<g id="side-bar">
<path id="Rectangle-5" d="M0.000,0.000 L172.000,0.000 L172.000,400.000 L0.000,400.000 L0.000,0.000 z" fill="#758A9A" />
<path id="Rectangle-12" d="M0.000,325.000 L0.000,297.000 L172.000,297.000 L172.000,325.000 L0.000,325.000 zM20.000,187.000 C20.000,184.791 21.791,183.000 24.000,183.000 C24.000,183.000 130.000,183.000 130.000,183.000 C132.209,183.000 134.000,184.791 134.000,187.000 C134.000,187.000 134.000,191.000 134.000,191.000 C134.000,193.209 132.209,195.000 130.000,195.000 C130.000,195.000 24.000,195.000 24.000,195.000 C21.791,195.000 20.000,193.209 20.000,191.000 C20.000,191.000 20.000,187.000 20.000,187.000 zM24.000,247.000 C24.000,247.000 110.000,247.000 110.000,247.000 C112.209,247.000 114.000,248.791 114.000,251.000 C114.000,251.000 114.000,255.000 114.000,255.000 C114.000,257.209 112.209,259.000 110.000,259.000 C110.000,259.000 24.000,259.000 24.000,259.000 C21.791,259.000 20.000,257.209 20.000,255.000 C20.000,255.000 20.000,251.000 20.000,251.000 C20.000,248.791 21.791,247.000 24.000,247.000 zM20.000,219.000 C20.000,216.791 21.791,215.000 24.000,215.000 C24.000,215.000 100.000,215.000 100.000,215.000 C102.209,215.000 104.000,216.791 104.000,219.000 C104.000,219.000 104.000,223.000 104.000,223.000 C104.000,225.209 102.209,227.000 100.000,227.000 C100.000,227.000 24.000,227.000 24.000,227.000 C21.791,227.000 20.000,225.209 20.000,223.000 C20.000,223.000 20.000,219.000 20.000,219.000 zM0.000,139.000 L172.000,139.000 L172.000,167.000 L0.000,167.000 L0.000,139.000 zM24.000,342.000 C24.000,342.000 120.000,342.000 120.000,342.000 C122.209,342.000 124.000,343.791 124.000,346.000 C124.000,346.000 124.000,350.000 124.000,350.000 C124.000,352.209 122.209,354.000 120.000,354.000 C120.000,354.000 24.000,354.000 24.000,354.000 C21.791,354.000 20.000,352.209 20.000,350.000 C20.000,350.000 20.000,346.000 20.000,346.000 C20.000,343.791 21.791,342.000 24.000,342.000 zM24.000,374.000 C24.000,374.000 90.000,374.000 90.000,374.000 C92.209,374.000 94.000,375.791 94.000,378.000 C94.000,378.000 94.000,382.000 94.000,382.000 C94.000,384.209 92.209,386.000 90.000,386.000 C90.000,386.000 24.000,386.000 24.000,386.000 C21.791,386.000 20.000,384.209 20.000,382.000 C20.000,382.000 20.000,378.000 20.000,378.000 C20.000,375.791 21.791,374.000 24.000,374.000 zM24.000,406.000 C24.000,406.000 130.000,406.000 130.000,406.000 C132.209,406.000 134.000,407.791 134.000,410.000 C134.000,410.000 134.000,414.000 134.000,414.000 C134.000,416.209 132.209,418.000 130.000,418.000 C130.000,418.000 24.000,418.000 24.000,418.000 C21.791,418.000 20.000,416.209 20.000,414.000 C20.000,414.000 20.000,410.000 20.000,410.000 C20.000,407.791 21.791,406.000 24.000,406.000 z" fill="#D2DDE7" fill-opacity="0.478" />
<path id="Rectangle-9" d="M24.000,20.000 C24.000,20.000 48.000,20.000 48.000,20.000 C50.209,20.000 52.000,21.791 52.000,24.000 C52.000,24.000 52.000,48.000 52.000,48.000 C52.000,50.209 50.209,52.000 48.000,52.000 C48.000,52.000 24.000,52.000 24.000,52.000 C21.791,52.000 20.000,50.209 20.000,48.000 C20.000,48.000 20.000,24.000 20.000,24.000 C20.000,21.791 21.791,20.000 24.000,20.000 z" fill="#00C2C5" />
<path id="Rectangle-10" d="M150.000,38.000 C150.000,38.000 66.000,38.000 66.000,38.000 C64.895,38.000 64.000,37.105 64.000,36.000 C64.000,36.000 64.000,24.000 64.000,24.000 C64.000,22.895 64.895,22.000 66.000,22.000 C66.000,22.000 150.000,22.000 150.000,22.000 C151.105,22.000 152.000,22.895 152.000,24.000 C152.000,24.000 152.000,36.000 152.000,36.000 C152.000,37.105 151.105,38.000 150.000,38.000 zM66.000,44.000 C66.000,44.000 110.000,44.000 110.000,44.000 C111.105,44.000 112.000,44.895 112.000,46.000 C112.000,46.000 112.000,48.000 112.000,48.000 C112.000,49.105 111.105,50.000 110.000,50.000 C110.000,50.000 66.000,50.000 66.000,50.000 C64.895,50.000 64.000,49.105 64.000,48.000 C64.000,48.000 64.000,46.000 64.000,46.000 C64.000,44.895 64.895,44.000 66.000,44.000 z" fill="#D2DDE7" />
</g>
<g id="content">
<path id="Rectangle-7" d="M264.000,372.000 C264.000,372.000 212.000,372.000 212.000,372.000 C209.791,372.000 208.000,370.209 208.000,368.000 C208.000,368.000 208.000,316.000 208.000,316.000 C208.000,313.791 209.791,312.000 212.000,312.000 C212.000,312.000 264.000,312.000 264.000,312.000 C266.209,312.000 268.000,313.791 268.000,316.000 C268.000,316.000 268.000,368.000 268.000,368.000 C268.000,370.209 266.209,372.000 264.000,372.000 zM264.000,96.000 C264.000,96.000 212.000,96.000 212.000,96.000 C209.791,96.000 208.000,94.209 208.000,92.000 C208.000,92.000 208.000,40.000 208.000,40.000 C208.000,37.791 209.791,36.000 212.000,36.000 C212.000,36.000 264.000,36.000 264.000,36.000 C266.209,36.000 268.000,37.791 268.000,40.000 C268.000,40.000 268.000,92.000 268.000,92.000 C268.000,94.209 266.209,96.000 264.000,96.000 z" fill="#D2DDE7" fill-opacity="0.478" />
<path id="Rectangle-6" d="M600.000,504.000 C600.000,504.000 296.000,504.000 296.000,504.000 C293.791,504.000 292.000,502.209 292.000,500.000 C292.000,500.000 292.000,488.000 292.000,488.000 C292.000,485.791 293.791,484.000 296.000,484.000 C296.000,484.000 600.000,484.000 600.000,484.000 C602.209,484.000 604.000,485.791 604.000,488.000 C604.000,488.000 604.000,500.000 604.000,500.000 C604.000,502.209 602.209,504.000 600.000,504.000 zM600.000,468.000 C600.000,468.000 296.000,468.000 296.000,468.000 C293.791,468.000 292.000,466.209 292.000,464.000 C292.000,464.000 292.000,452.000 292.000,452.000 C292.000,449.791 293.791,448.000 296.000,448.000 C296.000,448.000 600.000,448.000 600.000,448.000 C602.209,448.000 604.000,449.791 604.000,452.000 C604.000,452.000 604.000,464.000 604.000,464.000 C604.000,466.209 602.209,468.000 600.000,468.000 zM600.000,432.000 C600.000,432.000 296.000,432.000 296.000,432.000 C293.791,432.000 292.000,430.209 292.000,428.000 C292.000,428.000 292.000,316.000 292.000,316.000 C292.000,313.791 293.791,312.000 296.000,312.000 C296.000,312.000 600.000,312.000 600.000,312.000 C602.209,312.000 604.000,313.791 604.000,316.000 C604.000,316.000 604.000,428.000 604.000,428.000 C604.000,430.209 602.209,432.000 600.000,432.000 zM600.000,228.000 C600.000,228.000 296.000,228.000 296.000,228.000 C293.791,228.000 292.000,226.209 292.000,224.000 C292.000,224.000 292.000,212.000 292.000,212.000 C292.000,209.791 293.791,208.000 296.000,208.000 C296.000,208.000 600.000,208.000 600.000,208.000 C602.209,208.000 604.000,209.791 604.000,212.000 C604.000,212.000 604.000,224.000 604.000,224.000 C604.000,226.209 602.209,228.000 600.000,228.000 zM600.000,192.000 C600.000,192.000 296.000,192.000 296.000,192.000 C293.791,192.000 292.000,190.209 292.000,188.000 C292.000,188.000 292.000,176.000 292.000,176.000 C292.000,173.791 293.791,172.000 296.000,172.000 C296.000,172.000 600.000,172.000 600.000,172.000 C602.209,172.000 604.000,173.791 604.000,176.000 C604.000,176.000 604.000,188.000 604.000,188.000 C604.000,190.209 602.209,192.000 600.000,192.000 zM600.000,156.000 C600.000,156.000 296.000,156.000 296.000,156.000 C293.791,156.000 292.000,154.209 292.000,152.000 C292.000,152.000 292.000,40.000 292.000,40.000 C292.000,37.791 293.791,36.000 296.000,36.000 C296.000,36.000 600.000,36.000 600.000,36.000 C602.209,36.000 604.000,37.791 604.000,40.000 C604.000,40.000 604.000,152.000 604.000,152.000 C604.000,154.209 602.209,156.000 600.000,156.000 zM296.000,244.000 C296.000,244.000 448.000,244.000 448.000,244.000 C450.209,244.000 452.000,245.791 452.000,248.000 C452.000,248.000 452.000,260.000 452.000,260.000 C452.000,262.209 450.209,264.000 448.000,264.000 C448.000,264.000 296.000,264.000 296.000,264.000 C293.791,264.000 292.000,262.209 292.000,260.000 C292.000,260.000 292.000,248.000 292.000,248.000 C292.000,245.791 293.791,244.000 296.000,244.000 zM296.000,520.000 C296.000,520.000 448.000,520.000 448.000,520.000 C450.209,520.000 452.000,521.791 452.000,524.000 C452.000,524.000 452.000,536.000 452.000,536.000 C452.000,538.209 450.209,540.000 448.000,540.000 C448.000,540.000 296.000,540.000 296.000,540.000 C293.791,540.000 292.000,538.209 292.000,536.000 C292.000,536.000 292.000,524.000 292.000,524.000 C292.000,521.791 293.791,520.000 296.000,520.000 z" fill="#D2DDE7" fill-opacity="0.639" />
</g>
</g>
</svg>
