<svg version="1.1" xmlns="http://www.w3.org/2000/svg" xmlns:xlink="http://www.w3.org/1999/xlink" width="640" height="400" viewBox="0 0 640 400">
<g id="skeleton-content">
<g id="side-bar-bottom">
<path id="Rectangle-5" d="M0.000,0.000 L172.000,0.000 L172.000,400.000 L0.000,400.000 L0.000,0.000 z" fill="#BAC5CD" />
<path id="Rectangle-9" d="M152.000,22.000 C152.000,22.000 164.000,22.000 164.000,22.000 C165.105,22.000 166.000,22.895 166.000,24.000 C166.000,24.000 166.000,36.000 166.000,36.000 C166.000,37.105 165.105,38.000 164.000,38.000 C164.000,38.000 152.000,38.000 152.000,38.000 C150.895,38.000 150.000,37.105 150.000,36.000 C150.000,36.000 150.000,24.000 150.000,24.000 C150.000,22.895 150.895,22.000 152.000,22.000 z" fill="#D2DDE7" />
</g>
<g id="side-bar-middle">
<path id="Rectangle-5" d="M-0.000,0.000 L144.000,0.000 L144.000,400.000 L-0.000,400.000 L-0.000,0.000 z" fill="#8396A4" />
<path id="Rectangle-9" d="M124.000,22.000 C124.000,22.000 136.000,22.000 136.000,22.000 C137.105,22.000 138.000,22.895 138.000,24.000 C138.000,24.000 138.000,36.000 138.000,36.000 C138.000,37.105 137.105,38.000 136.000,38.000 C136.000,38.000 124.000,38.000 124.000,38.000 C122.895,38.000 122.000,37.105 122.000,36.000 C122.000,36.000 122.000,24.000 122.000,24.000 C122.000,22.895 122.895,22.000 124.000,22.000 z" fill="#D2DDE7" />
</g>
<g id="side-bar-top">
<path id="Rectangle-5" d="M-0.000,0.000 L116.000,0.000 L116.000,400.000 L-0.000,400.000 L-0.000,0.000 z" fill="#758A9A" />
<path id="Rectangle-12" d="M-0.000,257.000 L-0.000,237.000 L116.000,237.000 L116.000,257.000 L-0.000,257.000 zM14.000,117.000 C14.000,115.895 14.895,115.000 16.000,115.000 C16.000,115.000 94.000,115.000 94.000,115.000 C95.105,115.000 96.000,115.895 96.000,117.000 C96.000,117.000 96.000,125.000 96.000,125.000 C96.000,126.105 95.105,127.000 94.000,127.000 C94.000,127.000 16.000,127.000 16.000,127.000 C14.895,127.000 14.000,126.105 14.000,125.000 C14.000,125.000 14.000,117.000 14.000,117.000 zM16.000,179.000 C16.000,179.000 101.000,179.000 101.000,179.000 C102.105,179.000 103.000,179.895 103.000,181.000 C103.000,181.000 103.000,189.000 103.000,189.000 C103.000,190.105 102.105,191.000 101.000,191.000 C101.000,191.000 16.000,191.000 16.000,191.000 C14.895,191.000 14.000,190.105 14.000,189.000 C14.000,189.000 14.000,181.000 14.000,181.000 C14.000,179.895 14.895,179.000 16.000,179.000 zM14.000,149.000 C14.000,147.895 14.895,147.000 16.000,147.000 C16.000,147.000 76.000,147.000 76.000,147.000 C77.105,147.000 78.000,147.895 78.000,149.000 C78.000,149.000 78.000,157.000 78.000,157.000 C78.000,158.105 77.105,159.000 76.000,159.000 C76.000,159.000 16.000,159.000 16.000,159.000 C14.895,159.000 14.000,158.105 14.000,157.000 C14.000,157.000 14.000,149.000 14.000,149.000 zM-0.000,78.990 L116.000,78.990 L116.000,98.990 L-0.000,98.990 L-0.000,78.990 zM16.000,274.000 C16.000,274.000 86.000,274.000 86.000,274.000 C87.105,274.000 88.000,274.895 88.000,276.000 C88.000,276.000 88.000,284.000 88.000,284.000 C88.000,285.105 87.105,286.000 86.000,286.000 C86.000,286.000 16.000,286.000 16.000,286.000 C14.895,286.000 14.000,285.105 14.000,284.000 C14.000,284.000 14.000,276.000 14.000,276.000 C14.000,274.895 14.895,274.000 16.000,274.000 zM16.000,306.000 C16.000,306.000 95.000,306.000 95.000,306.000 C96.105,306.000 97.000,306.895 97.000,308.000 C97.000,308.000 97.000,316.000 97.000,316.000 C97.000,317.105 96.105,318.000 95.000,318.000 C95.000,318.000 16.000,318.000 16.000,318.000 C14.895,318.000 14.000,317.105 14.000,316.000 C14.000,316.000 14.000,308.000 14.000,308.000 C14.000,306.895 14.895,306.000 16.000,306.000 zM16.000,338.000 C16.000,338.000 89.000,338.000 89.000,338.000 C90.105,338.000 91.000,338.895 91.000,340.000 C91.000,340.000 91.000,348.000 91.000,348.000 C91.000,349.105 90.105,350.000 89.000,350.000 C89.000,350.000 16.000,350.000 16.000,350.000 C14.895,350.000 14.000,349.105 14.000,348.000 C14.000,348.000 14.000,340.000 14.000,340.000 C14.000,338.895 14.895,338.000 16.000,338.000 z" fill="#D2DDE7" fill-opacity="0.478" />
<path id="Rectangle-9" d="M24.000,22.000 C24.000,22.000 36.000,22.000 36.000,22.000 C37.105,22.000 38.000,22.895 38.000,24.000 C38.000,24.000 38.000,36.000 38.000,36.000 C38.000,37.105 37.105,38.000 36.000,38.000 C36.000,38.000 24.000,38.000 24.000,38.000 C22.895,38.000 22.000,37.105 22.000,36.000 C22.000,36.000 22.000,24.000 22.000,24.000 C22.000,22.895 22.895,22.000 24.000,22.000 z" fill="#00C2C5" />
<path id="Rectangle-10" d="M48.000,26.000 C48.000,26.000 92.000,26.000 92.000,26.000 C93.105,26.000 94.000,26.895 94.000,28.000 C94.000,28.000 94.000,32.000 94.000,32.000 C94.000,33.105 93.105,34.000 92.000,34.000 C92.000,34.000 48.000,34.000 48.000,34.000 C46.895,34.000 46.000,33.105 46.000,32.000 C46.000,32.000 46.000,28.000 46.000,28.000 C46.000,26.895 46.895,26.000 48.000,26.000 z" fill="#D2DDE7" />
</g>
<g id="content">
<path id="Rectangle-7" d="M264.000,372.000 C264.000,372.000 212.000,372.000 212.000,372.000 C209.791,372.000 208.000,370.209 208.000,368.000 C208.000,368.000 208.000,316.000 208.000,316.000 C208.000,313.791 209.791,312.000 212.000,312.000 C212.000,312.000 264.000,312.000 264.000,312.000 C266.209,312.000 268.000,313.791 268.000,316.000 C268.000,316.000 268.000,368.000 268.000,368.000 C268.000,370.209 266.209,372.000 264.000,372.000 zM264.000,96.000 C264.000,96.000 212.000,96.000 212.000,96.000 C209.791,96.000 208.000,94.209 208.000,92.000 C208.000,92.000 208.000,40.000 208.000,40.000 C208.000,37.791 209.791,36.000 212.000,36.000 C212.000,36.000 264.000,36.000 264.000,36.000 C266.209,36.000 268.000,37.791 268.000,40.000 C268.000,40.000 268.000,92.000 268.000,92.000 C268.000,94.209 266.209,96.000 264.000,96.000 z" fill="#D2DDE7" fill-opacity="0.478" />
<path id="Rectangle-6" d="M600.000,504.000 C600.000,504.000 296.000,504.000 296.000,504.000 C293.791,504.000 292.000,502.209 292.000,500.000 C292.000,500.000 292.000,488.000 292.000,488.000 C292.000,485.791 293.791,484.000 296.000,484.000 C296.000,484.000 600.000,484.000 600.000,484.000 C602.209,484.000 604.000,485.791 604.000,488.000 C604.000,488.000 604.000,500.000 604.000,500.000 C604.000,502.209 602.209,504.000 600.000,504.000 zM600.000,468.000 C600.000,468.000 296.000,468.000 296.000,468.000 C293.791,468.000 292.000,466.209 292.000,464.000 C292.000,464.000 292.000,452.000 292.000,452.000 C292.000,449.791 293.791,448.000 296.000,448.000 C296.000,448.000 600.000,448.000 600.000,448.000 C602.209,448.000 604.000,449.791 604.000,452.000 C604.000,452.000 604.000,464.000 604.000,464.000 C604.000,466.209 602.209,468.000 600.000,468.000 zM600.000,432.000 C600.000,432.000 296.000,432.000 296.000,432.000 C293.791,432.000 292.000,430.209 292.000,428.000 C292.000,428.000 292.000,316.000 292.000,316.000 C292.000,313.791 293.791,312.000 296.000,312.000 C296.000,312.000 600.000,312.000 600.000,312.000 C602.209,312.000 604.000,313.791 604.000,316.000 C604.000,316.000 604.000,428.000 604.000,428.000 C604.000,430.209 602.209,432.000 600.000,432.000 zM600.000,228.000 C600.000,228.000 296.000,228.000 296.000,228.000 C293.791,228.000 292.000,226.209 292.000,224.000 C292.000,224.000 292.000,212.000 292.000,212.000 C292.000,209.791 293.791,208.000 296.000,208.000 C296.000,208.000 600.000,208.000 600.000,208.000 C602.209,208.000 604.000,209.791 604.000,212.000 C604.000,212.000 604.000,224.000 604.000,224.000 C604.000,226.209 602.209,228.000 600.000,228.000 zM600.000,192.000 C600.000,192.000 296.000,192.000 296.000,192.000 C293.791,192.000 292.000,190.209 292.000,188.000 C292.000,188.000 292.000,176.000 292.000,176.000 C292.000,173.791 293.791,172.000 296.000,172.000 C296.000,172.000 600.000,172.000 600.000,172.000 C602.209,172.000 604.000,173.791 604.000,176.000 C604.000,176.000 604.000,188.000 604.000,188.000 C604.000,190.209 602.209,192.000 600.000,192.000 zM600.000,156.000 C600.000,156.000 296.000,156.000 296.000,156.000 C293.791,156.000 292.000,154.209 292.000,152.000 C292.000,152.000 292.000,40.000 292.000,40.000 C292.000,37.791 293.791,36.000 296.000,36.000 C296.000,36.000 600.000,36.000 600.000,36.000 C602.209,36.000 604.000,37.791 604.000,40.000 C604.000,40.000 604.000,152.000 604.000,152.000 C604.000,154.209 602.209,156.000 600.000,156.000 zM296.000,244.000 C296.000,244.000 448.000,244.000 448.000,244.000 C450.209,244.000 452.000,245.791 452.000,248.000 C452.000,248.000 452.000,260.000 452.000,260.000 C452.000,262.209 450.209,264.000 448.000,264.000 C448.000,264.000 296.000,264.000 296.000,264.000 C293.791,264.000 292.000,262.209 292.000,260.000 C292.000,260.000 292.000,248.000 292.000,248.000 C292.000,245.791 293.791,244.000 296.000,244.000 zM296.000,520.000 C296.000,520.000 448.000,520.000 448.000,520.000 C450.209,520.000 452.000,521.791 452.000,524.000 C452.000,524.000 452.000,536.000 452.000,536.000 C452.000,538.209 450.209,540.000 448.000,540.000 C448.000,540.000 296.000,540.000 296.000,540.000 C293.791,540.000 292.000,538.209 292.000,536.000 C292.000,536.000 292.000,524.000 292.000,524.000 C292.000,521.791 293.791,520.000 296.000,520.000 z" fill="#D2DDE7" fill-opacity="0.639" />
</g>
</g>
</svg>
