<svg version="1.1" xmlns="http://www.w3.org/2000/svg" xmlns:xlink="http://www.w3.org/1999/xlink" width="640" height="400" viewBox="0 0 640 400">
<g id="skeleton-sign-in">
<path id="Rectangle-1" d="M128.000,128.000 C128.000,128.000 512.000,128.000 512.000,128.000 C516.418,128.000 520.000,131.582 520.000,136.000 C520.000,136.000 520.000,252.000 520.000,252.000 C520.000,256.418 516.418,260.000 512.000,260.000 C512.000,260.000 128.000,260.000 128.000,260.000 C123.582,260.000 120.000,256.418 120.000,252.000 C120.000,252.000 120.000,136.000 120.000,136.000 C120.000,131.582 123.582,128.000 128.000,128.000 z" fill="#D2DDE7" fill-opacity="0.478" />
<path id="Rectangle-2" d="M394.000,192.000 C394.000,192.000 278.000,192.000 278.000,192.000 C276.895,192.000 276.000,191.105 276.000,190.000 C276.000,190.000 276.000,170.000 276.000,170.000 C276.000,168.895 276.895,168.000 278.000,168.000 C278.000,168.000 394.000,168.000 394.000,168.000 C395.105,168.000 396.000,168.895 396.000,170.000 C396.000,170.000 396.000,190.000 396.000,190.000 C396.000,191.105 395.105,192.000 394.000,192.000 zM262.000,192.000 C262.000,192.000 146.000,192.000 146.000,192.000 C144.895,192.000 144.000,191.105 144.000,190.000 C144.000,190.000 144.000,170.000 144.000,170.000 C144.000,168.895 144.895,168.000 146.000,168.000 C146.000,168.000 262.000,168.000 262.000,168.000 C263.105,168.000 264.000,168.895 264.000,170.000 C264.000,170.000 264.000,190.000 264.000,190.000 C264.000,191.105 263.105,192.000 262.000,192.000 z" fill="#FFFFFF" />
<path id="Rectangle-2" d="M146.000,204.000 C146.000,204.000 154.000,204.000 154.000,204.000 C155.105,204.000 156.000,204.895 156.000,206.000 C156.000,206.000 156.000,214.000 156.000,214.000 C156.000,215.105 155.105,216.000 154.000,216.000 C154.000,216.000 146.000,216.000 146.000,216.000 C144.895,216.000 144.000,215.105 144.000,214.000 C144.000,214.000 144.000,206.000 144.000,206.000 C144.000,204.895 144.895,204.000 146.000,204.000 z" fill="#FFFFFF" />
<path id="Rectangle-2" d="M170.000,207.000 C170.000,207.000 226.000,207.000 226.000,207.000 C227.105,207.000 228.000,207.895 228.000,209.000 C228.000,209.000 228.000,211.000 228.000,211.000 C228.000,212.105 227.105,213.000 226.000,213.000 C226.000,213.000 170.000,213.000 170.000,213.000 C168.895,213.000 168.000,212.105 168.000,211.000 C168.000,211.000 168.000,209.000 168.000,209.000 C168.000,207.895 168.895,207.000 170.000,207.000 z" fill="#758A9A" fill-opacity="0.239" />
<path id="Rectangle-2" d="M410.000,168.000 C410.000,168.000 486.000,168.000 486.000,168.000 C487.105,168.000 488.000,168.895 488.000,170.000 C488.000,170.000 488.000,190.000 488.000,190.000 C488.000,191.105 487.105,192.000 486.000,192.000 C486.000,192.000 410.000,192.000 410.000,192.000 C408.895,192.000 408.000,191.105 408.000,190.000 C408.000,190.000 408.000,170.000 408.000,170.000 C408.000,168.895 408.895,168.000 410.000,168.000 z" fill="#00C2C5" />
</g>
</svg>
